  0
SECTION
  2
HEADER
  9
$ACADVER
  1
AC1024
  9
$ACADMAINTVER
 70
6
  9
$DWGCODEPAGE
  3
ANSI_1252
  9
$LASTSAVEDBY
  1
ezdxf
  9
$INSBASE
 10
0.0
 20
0.0
 30
0.0
  9
$EXTMIN
 10
1e+20
 20
1e+20
 30
1e+20
  9
$EXTMAX
 10
-1e+20
 20
-1e+20
 30
-1e+20
  9
$LIMMIN
 10
0.0
 20
0.0
  9
$LIMMAX
 10
420.0
 20
297.0
  9
$ORTHOMODE
 70
0
  9
$REGENMODE
 70
1
  9
$FILLMODE
 70
1
  9
$QTEXTMODE
 70
0
  9
$MIRRTEXT
 70
1
  9
$LTSCALE
 40
1.0
  9
$ATTMODE
 70
1
  9
$TEXTSIZE
 40
2.5
  9
$TRACEWID
 40
1.0
  9
$TEXTSTYLE
  7
OpenSans
  9
$CLAYER
  8
0
  9
$CELTYPE
  6
ByLayer
  9
$CECOLOR
 62
256
  9
$CELTSCALE
 40
1.0
  9
$DISPSILH
 70
0
  9
$DIMSCALE
 40
1.0
  9
$DIMASZ
 40
0.175
  9
$DIMEXO
 40
0.125
  9
$DIMDLI
 40
3.75
  9
$DIMRND
 40
0.0
  9
$DIMDLE
 40
0.0
  9
$DIMEXE
 40
0.375
  9
$DIMTP
 40
0.0
  9
$DIMTM
 40
0.0
  9
$DIMTXT
 40
0.25
  9
$DIMCEN
 40
2.5
  9
$DIMTSZ
 40
0.0
  9
$DIMTOL
 70
0
  9
$DIMLIM
 70
0
  9
$DIMTIH
 70
0
  9
$DIMTOH
 70
0
  9
$DIMSE1
 70
0
  9
$DIMSE2
 70
0
  9
$DIMTAD
 70
1
  9
$DIMZIN
 70
12
  9
$DIMBLK
  1
ARCHTICK
  9
$DIMASO
 70
1
  9
$DIMSHO
 70
1
  9
$DIMPOST
  1

  9
$DIMAPOST
  1

  9
$DIMALT
 70
0
  9
$DIMALTD
 70
3
  9
$DIMALTF
 40
0.03937007874
  9
$DIMLFAC
 40
100.0
  9
$DIMTOFL
 70
1
  9
$DIMTVP
 40
0.0
  9
$DIMTIX
 70
0
  9
$DIMSOXD
 70
0
  9
$DIMSAH
 70
0
  9
$DIMBLK1
  1

  9
$DIMBLK2
  1

  9
$DIMSTYLE
  2
EZDXF
  9
$DIMCLRD
 70
0
  9
$DIMCLRE
 70
0
  9
$DIMCLRT
 70
0
  9
$DIMTFAC
 40
0.5
  9
$DIMGAP
 40
0.1
  9
$DIMJUST
 70
0
  9
$DIMSD1
 70
0
  9
$DIMSD2
 70
0
  9
$DIMTOLJ
 70
0
  9
$DIMTZIN
 70
8
  9
$DIMALTZ
 70
0
  9
$DIMALTTZ
 70
0
  9
$DIMUPT
 70
1
  9
$DIMDEC
 70
2
  9
$DIMTDEC
 70
2
  9
$DIMALTU
 70
2
  9
$DIMALTTD
 70
3
  9
$DIMTXSTY
  7
OpenSansCondensed-Light
  9
$DIMAUNIT
 70
0
  9
$DIMADEC
 70
2
  9
$DIMALTRND
 40
0.0
  9
$DIMAZIN
 70
3
  9
$DIMDSEP
 70
46
  9
$DIMATFIT
 70
3
  9
$DIMFRAC
 70
0
  9
$DIMLDRBLK
  1

  9
$DIMLUNIT
 70
2
  9
$DIMLWD
 70
-2
  9
$DIMLWE
 70
-2
  9
$DIMTMOVE
 70
2
  9
$DIMFXL
 40
1.0
  9
$DIMFXLON
 70
0
  9
$DIMJOGANG
 40
0.785398163397
  9
$DIMTFILL
 70
0
  9
$DIMTFILLCLR
 70
0
  9
$DIMARCSYM
 70
0
  9
$DIMLTYPE
  6

  9
$DIMLTEX1
  6

  9
$DIMLTEX2
  6

  9
$DIMTXTDIRECTION
 70
0
  9
$LUNITS
 70
2
  9
$LUPREC
 70
4
  9
$SKETCHINC
 40
1.0
  9
$FILLETRAD
 40
10.0
  9
$AUNITS
 70
0
  9
$AUPREC
 70
2
  9
$MENU
  1
.
  9
$ELEVATION
 40
0.0
  9
$PELEVATION
 40
0.0
  9
$THICKNESS
 40
0.0
  9
$LIMCHECK
 70
0
  9
$CHAMFERA
 40
0.0
  9
$CHAMFERB
 40
0.0
  9
$CHAMFERC
 40
0.0
  9
$CHAMFERD
 40
0.0
  9
$SKPOLY
 70
0
  9
$TDCREATE
 40
2461285.0802430557
  9
$TDUCREATE
 40
2458532.153996898
  9
$TDUPDATE
 40
2461285.0802430557
  9
$TDUUPDATE
 40
2458532.1544311
  9
$TDINDWG
 40
0.0
  9
$TDUSRTIMER
 40
0.0
  9
$USRTIMER
 70
1
  9
$ANGBASE
 50
0.0
  9
$ANGDIR
 70
0
  9
$PDMODE
 70
0
  9
$PDSIZE
 40
0.0
  9
$PLINEWID
 40
0.0
  9
$SPLFRAME
 70
0
  9
$SPLINETYPE
 70
6
  9
$SPLINESEGS
 70
8
  9
$HANDSEED
  5
EF
  9
$SURFTAB1
 70
6
  9
$SURFTAB2
 70
6
  9
$SURFTYPE
 70
6
  9
$SURFU
 70
6
  9
$SURFV
 70
6
  9
$UCSBASE
  2

  9
$UCSNAME
  2

  9
$UCSORG
 10
0.0
 20
0.0
 30
0.0
  9
$UCSXDIR
 10
1.0
 20
0.0
 30
0.0
  9
$UCSYDIR
 10
0.0
 20
1.0
 30
0.0
  9
$UCSORTHOREF
  2

  9
$UCSORTHOVIEW
 70
0
  9
$UCSORGTOP
 10
0.0
 20
0.0
 30
0.0
  9
$UCSORGBOTTOM
 10
0.0
 20
0.0
 30
0.0
  9
$UCSORGLEFT
 10
0.0
 20
0.0
 30
0.0
  9
$UCSORGRIGHT
 10
0.0
 20
0.0
 30
0.0
  9
$UCSORGFRONT
 10
0.0
 20
0.0
 30
0.0
  9
$UCSORGBACK
 10
0.0
 20
0.0
 30
0.0
  9
$PUCSBASE
  2

  9
$PUCSNAME
  2

  9
$PUCSORG
 10
0.0
 20
0.0
 30
0.0
  9
$PUCSXDIR
 10
1.0
 20
0.0
 30
0.0
  9
$PUCSYDIR
 10
0.0
 20
1.0
 30
0.0
  9
$PUCSORTHOREF
  2

  9
$PUCSORTHOVIEW
 70
0
  9
$PUCSORGTOP
 10
0.0
 20
0.0
 30
0.0
  9
$PUCSORGBOTTOM
 10
0.0
 20
0.0
 30
0.0
  9
$PUCSORGLEFT
 10
0.0
 20
0.0
 30
0.0
  9
$PUCSORGRIGHT
 10
0.0
 20
0.0
 30
0.0
  9
$PUCSORGFRONT
 10
0.0
 20
0.0
 30
0.0
  9
$PUCSORGBACK
 10
0.0
 20
0.0
 30
0.0
  9
$USERI1
 70
0
  9
$USERI2
 70
0
  9
$USERI3
 70
0
  9
$USERI4
 70
0
  9
$USERI5
 70
0
  9
$USERR1
 40
0.0
  9
$USERR2
 40
0.0
  9
$USERR3
 40
0.0
  9
$USERR4
 40
0.0
  9
$USERR5
 40
0.0
  9
$WORLDVIEW
 70
1
  9
$SHADEDGE
 70
3
  9
$SHADEDIF
 70
70
  9
$TILEMODE
 70
1
  9
$MAXACTVP
 70
64
  9
$PINSBASE
 10
0.0
 20
0.0
 30
0.0
  9
$PLIMCHECK
 70
0
  9
$PEXTMIN
 10
1e+20
 20
1e+20
 30
1e+20
  9
$PEXTMAX
 10
-1e+20
 20
-1e+20
 30
-1e+20
  9
$PLIMMIN
 10
0.0
 20
0.0
  9
$PLIMMAX
 10
420.0
 20
297.0
  9
$UNITMODE
 70
0
  9
$VISRETAIN
 70
1
  9
$PLINEGEN
 70
0
  9
$PSLTSCALE
 70
1
  9
$TREEDEPTH
 70
3020
  9
$CMLSTYLE
  2
Standard
  9
$CMLJUST
 70
0
  9
$CMLSCALE
 40
20.0
  9
$PROXYGRAPHICS
 70
1
  9
$MEASUREMENT
 70
1
  9
$CELWEIGHT
370
-1
  9
$ENDCAPS
280
0
  9
$JOINSTYLE
280
0
  9
$LWDISPLAY
290
0
  9
$INSUNITS
 70
4
  9
$HYPERLINKBASE
  1

  9
$STYLESHEET
  1

  9
$XEDIT
290
1
  9
$CEPSNTYPE
380
0
  9
$PSTYLEMODE
290
1
  9
$FINGERPRINTGUID
  2
{855964CA-9E85-42B0-BB57-210ED01D3E43}
  9
$VERSIONGUID
  2
{DFF1921E-6ADE-45A9-B144-F5B7082FEBB5}
  9
$EXTNAMES
290
1
  9
$PSVPSCALE
 40
0.0
  9
$OLESTARTUP
290
0
  9
$SORTENTS
280
127
  9
$INDEXCTL
280
0
  9
$HIDETEXT
280
1
  9
$XCLIPFRAME
280
1
  9
$HALOGAP
280
0
  9
$OBSCOLOR
 70
257
  9
$OBSLTYPE
280
0
  9
$INTERSECTIONDISPLAY
280
0
  9
$INTERSECTIONCOLOR
 70
257
  9
$DIMASSOC
280
2
  9
$PROJECTNAME
  1

  9
$CAMERADISPLAY
290
0
  9
$LENSLENGTH
 40
50.0
  9
$CAMERAHEIGHT
 40
0.0
  9
$STEPSPERSEC
 40
24.0
  9
$STEPSIZE
 40
100.0
  9
$3DDWFPREC
 40
2.0
  9
$PSOLWIDTH
 40
0.005
  9
$PSOLHEIGHT
 40
0.08
  9
$LOFTANG1
 40
1.570796326795
  9
$LOFTANG2
 40
1.570796326795
  9
$LOFTMAG1
 40
0.0
  9
$LOFTMAG2
 40
0.0
  9
$LOFTPARAM
 70
7
  9
$LOFTNORMALS
280
1
  9
$LATITUDE
 40
37.795
  9
$LONGITUDE
 40
-122.394
  9
$NORTHDIRECTION
 40
0.0
  9
$TIMEZONE
 70
-8000
  9
$LIGHTGLYPHDISPLAY
280
1
  9
$TILEMODELIGHTSYNCH
280
1
  9
$CMATERIAL
347
20
  9
$SOLIDHIST
280
0
  9
$SHOWHIST
280
1
  9
$DWFFRAME
280
2
  9
$DGNFRAME
280
2
  9
$REALWORLDSCALE
290
1
  9
$INTERFERECOLOR
 62
256
  9
$CSHADOW
280
0
  9
$SHADOWPLANELOCATION
 40
0.0
  0
ENDSEC
  0
SECTION
  2
CLASSES
  0
CLASS
  1
ACDBDICTIONARYWDFLT
  2
AcDbDictionaryWithDefault
  3
ObjectDBX Classes
 90
0
 91
0
280
0
281
0
  0
CLASS
  1
SUN
  2
AcDbSun
  3
SCENEOE
 90
1153
 91
0
280
0
281
0
  0
CLASS
  1
VISUALSTYLE
  2
AcDbVisualStyle
  3
ObjectDBX Classes
 90
4095
 91
0
280
0
281
0
  0
CLASS
  1
MATERIAL
  2
AcDbMaterial
  3
ObjectDBX Classes
 90
1153
 91
0
280
0
281
0
  0
CLASS
  1
SCALE
  2
AcDbScale
  3
ObjectDBX Classes
 90
1153
 91
0
280
0
281
0
  0
CLASS
  1
TABLESTYLE
  2
AcDbTableStyle
  3
ObjectDBX Classes
 90
4095
 91
0
280
0
281
0
  0
CLASS
  1
MLEADERSTYLE
  2
AcDbMLeaderStyle
  3
ACDB_MLEADERSTYLE_CLASS
 90
4095
 91
0
280
0
281
0
  0
CLASS
  1
DICTIONARYVAR
  2
AcDbDictionaryVar
  3
ObjectDBX Classes
 90
0
 91
0
280
0
281
0
  0
CLASS
  1
CELLSTYLEMAP
  2
AcDbCellStyleMap
  3
ObjectDBX Classes
 90
1152
 91
0
280
0
281
0
  0
CLASS
  1
MENTALRAYRENDERSETTINGS
  2
AcDbMentalRayRenderSettings
  3
SCENEOE
 90
1024
 91
0
280
0
281
0
  0
CLASS
  1
ACDBDETAILVIEWSTYLE
  2
AcDbDetailViewStyle
  3
ObjectDBX Classes
 90
1025
 91
0
280
0
281
0
  0
CLASS
  1
ACDBSECTIONVIEWSTYLE
  2
AcDbSectionViewStyle
  3
ObjectDBX Classes
 90
1025
 91
0
280
0
281
0
  0
CLASS
  1
RASTERVARIABLES
  2
AcDbRasterVariables
  3
ISM
 90
0
 91
0
280
0
281
0
  0
CLASS
  1
LAYOUT
  2
AcDbLayout
  3
ObjectDBX Classes
 90
0
 91
0
280
0
281
0
  0
CLASS
  1
ACDBPLACEHOLDER
  2
AcDbPlaceHolder
  3
ObjectDBX Classes
 90
0
 91
0
280
0
281
0
  0
ENDSEC
  0
SECTION
  2
TABLES
  0
TABLE
  2
VPORT
  5
8
330
0
100
AcDbSymbolTable
 70
1
  0
VPORT
  5
23
330
8
100
AcDbSymbolTableRecord
100
AcDbViewportTableRecord
  2
*Active
 70
0
 10
0.0
 20
0.0
 11
1.0
 21
1.0
 12
0.0
 22
0.0
 13
0.0
 23
0.0
 14
0.5
 24
0.5
 15
0.5
 25
0.5
 16
0.0
 26
0.0
 36
1.0
 17
0.0
 27
0.0
 37
0.0
 40
1000.0
 41
1.34
 42
50.0
 43
0.0
 44
0.0
 50
0.0
 51
0.0
 71
0
 72
1000
 73
1
 74
3
 75
0
 76
0
 77
0
 78
0
281
0
 65
0
146
0.0
  0
ENDTAB
  0
TABLE
  2
LTYPE
  5
2
330
0
100
AcDbSymbolTable
 70
21
  0
LTYPE
  5
24
330
2
100
AcDbSymbolTableRecord
100
AcDbLinetypeTableRecord
  2
ByBlock
 70
0
  3

 72
65
 73
0
 40
0.0
  0
LTYPE
  5
25
330
2
100
AcDbSymbolTableRecord
100
AcDbLinetypeTableRecord
  2
ByLayer
 70
0
  3

 72
65
 73
0
 40
0.0
  0
LTYPE
  5
26
330
2
100
AcDbSymbolTableRecord
100
AcDbLinetypeTableRecord
  2
Continuous
 70
0
  3

 72
65
 73
0
 40
0.0
  0
LTYPE
  5
2F
330
2
100
AcDbSymbolTableRecord
100
AcDbLinetypeTableRecord
  2
CENTER
 70
0
  3
Center ____ _ ____ _ ____ _ ____ _ ____ _ ____
 72
65
 73
4
 40
5.08
 49
3.175
 74
0
 49
-0.635
 74
0
 49
0.635
 74
0
 49
-0.635
 74
0
  0
LTYPE
  5
30
330
2
100
AcDbSymbolTableRecord
100
AcDbLinetypeTableRecord
  2
CENTERX2
 70
0
  3
Center (2x) ________  __  ________  __  ________
 72
65
 73
4
 40
8.89
 49
6.35
 74
0
 49
-0.635
 74
0
 49
1.27
 74
0
 49
-0.635
 74
0
  0
LTYPE
  5
31
330
2
100
AcDbSymbolTableRecord
100
AcDbLinetypeTableRecord
  2
CENTER2
 70
0
  3
Center (.5x) ____ _ ____ _ ____ _ ____ _ ____
 72
65
 73
4
 40
2.54
 49
1.587
 74
0
 49
-0.318
 74
0
 49
0.318
 74
0
 49
-0.318
 74
0
  0
LTYPE
  5
32
330
2
100
AcDbSymbolTableRecord
100
AcDbLinetypeTableRecord
  2
DASHED
 70
0
  3
Dashed __ __ __ __ __ __ __ __ __ __ __ __ __ _
 72
65
 73
2
 40
1.524
 49
1.27
 74
0
 49
-0.254
 74
0
  0
LTYPE
  5
33
330
2
100
AcDbSymbolTableRecord
100
AcDbLinetypeTableRecord
  2
DASHEDX2
 70
0
  3
Dashed (2x) ____  ____  ____  ____  ____  ____
 72
65
 73
2
 40
3.048
 49
2.54
 74
0
 49
-0.508
 74
0
  0
LTYPE
  5
34
330
2
100
AcDbSymbolTableRecord
100
AcDbLinetypeTableRecord
  2
DASHED2
 70
0
  3
Dashed (.5x) _ _ _ _ _ _ _ _ _ _ _ _ _ _
 72
65
 73
2
 40
0.762
 49
0.635
 74
0
 49
-0.127
 74
0
  0
LTYPE
  5
35
330
2
100
AcDbSymbolTableRecord
100
AcDbLinetypeTableRecord
  2
PHANTOM
 70
0
  3
Phantom ______  __  __  ______  __  __  ______
 72
65
 73
6
 40
6.35
 49
3.175
 74
0
 49
-0.635
 74
0
 49
0.635
 74
0
 49
-0.635
 74
0
 49
0.635
 74
0
 49
-0.635
 74
0
  0
LTYPE
  5
36
330
2
100
AcDbSymbolTableRecord
100
AcDbLinetypeTableRecord
  2
PHANTOMX2
 70
0
  3
Phantom (2x)____________    ____    ____    ____________
 72
65
 73
6
 40
10.795
 49
6.35
 74
0
 49
-0.635
 74
0
 49
1.27
 74
0
 49
-0.635
 74
0
 49
1.27
 74
0
 49
-0.635
 74
0
  0
LTYPE
  5
37
330
2
100
AcDbSymbolTableRecord
100
AcDbLinetypeTableRecord
  2
PHANTOM2
 70
0
  3
Phantom (.5x) ___ _ _ ___ _ _ ___ _ _ ___ _ _ ___
 72
65
 73
6
 40
3.175
 49
1.587
 74
0
 49
-0.318
 74
0
 49
0.318
 74
0
 49
-0.318
 74
0
 49
0.318
 74
0
 49
-0.318
 74
0
  0
LTYPE
  5
38
330
2
100
AcDbSymbolTableRecord
100
AcDbLinetypeTableRecord
  2
DASHDOT
 70
0
  3
Dash dot __ . __ . __ . __ . __ . __ . __ . __
 72
65
 73
4
 40
3.556
 49
2.54
 74
0
 49
-0.508
 74
0
 49
0.0
 74
0
 49
-0.508
 74
0
  0
LTYPE
  5
39
330
2
100
AcDbSymbolTableRecord
100
AcDbLinetypeTableRecord
  2
DASHDOTX2
 70
0
  3
Dash dot (2x) ____  .  ____  .  ____  .  ____
 72
65
 73
4
 40
6.096
 49
5.08
 74
0
 49
-0.508
 74
0
 49
0.0
 74
0
 49
-0.508
 74
0
  0
LTYPE
  5
3A
330
2
100
AcDbSymbolTableRecord
100
AcDbLinetypeTableRecord
  2
DASHDOT2
 70
0
  3
Dash dot (.5x) _ . _ . _ . _ . _ . _ . _ . _
 72
65
 73
4
 40
1.778
 49
1.27
 74
0
 49
-0.254
 74
0
 49
0.0
 74
0
 49
-0.254
 74
0
  0
LTYPE
  5
3B
330
2
100
AcDbSymbolTableRecord
100
AcDbLinetypeTableRecord
  2
DOT
 70
0
  3
Dot .  .  .  .  .  .  .  .  .  .  .  .  .  .  .  .
 72
65
 73
2
 40
0.508
 49
0.0
 74
0
 49
-0.508
 74
0
  0
LTYPE
  5
3C
330
2
100
AcDbSymbolTableRecord
100
AcDbLinetypeTableRecord
  2
DOTX2
 70
0
  3
Dot (2x) .    .    .    .    .    .    .    . 
 72
65
 73
2
 40
1.016
 49
0.0
 74
0
 49
-1.016
 74
0
  0
LTYPE
  5
3D
330
2
100
AcDbSymbolTableRecord
100
AcDbLinetypeTableRecord
  2
DOT2
 70
0
  3
Dot (.5) . . . . . . . . . . . . . . . . . . . 
 72
65
 73
2
 40
0.254
 49
0.0
 74
0
 49
-0.254
 74
0
  0
LTYPE
  5
3E
330
2
100
AcDbSymbolTableRecord
100
AcDbLinetypeTableRecord
  2
DIVIDE
 70
0
  3
Divide __ . . __ . . __ . . __ . . __ . . __
 72
65
 73
6
 40
4.064
 49
2.54
 74
0
 49
-0.508
 74
0
 49
0.0
 74
0
 49
-0.508
 74
0
 49
0.0
 74
0
 49
-0.508
 74
0
  0
LTYPE
  5
3F
330
2
100
AcDbSymbolTableRecord
100
AcDbLinetypeTableRecord
  2
DIVIDEX2
 70
0
  3
Divide (2x) ____  . .  ____  . .  ____  . .  ____
 72
65
 73
6
 40
6.604
 49
5.08
 74
0
 49
-0.508
 74
0
 49
0.0
 74
0
 49
-0.508
 74
0
 49
0.0
 74
0
 49
-0.508
 74
0
  0
LTYPE
  5
40
330
2
100
AcDbSymbolTableRecord
100
AcDbLinetypeTableRecord
  2
DIVIDE2
 70
0
  3
Divide(.5x) _ . _ . _ . _ . _ . _ . _ . _
 72
65
 73
6
 40
2.032
 49
1.27
 74
0
 49
-0.254
 74
0
 49
0.0
 74
0
 49
-0.254
 74
0
 49
0.0
 74
0
 49
-0.254
 74
0
  0
ENDTAB
  0
TABLE
  2
LAYER
  5
1
330
0
100
AcDbSymbolTable
 70
8
  0
LAYER
  5
27
330
1
100
AcDbSymbolTableRecord
100
AcDbLayerTableRecord
  2
0
 70
0
 62
7
  6
Continuous
370
-3
390
13
347
21
  0
LAYER
  5
28
330
1
100
AcDbSymbolTableRecord
100
AcDbLayerTableRecord
  2
Defpoints
 70
0
 62
7
  6
Continuous
290
0
370
-3
390
13
347
21
  0
LAYER
  5
8A
330
1
100
AcDbSymbolTableRecord
100
AcDbLayerTableRecord
  2
RF_TOP_SIGNAL
 70
0
 62
2
  6
Continuous
370
-3
390
13
347
21
  0
LAYER
  5
8B
330
1
100
AcDbSymbolTableRecord
100
AcDbLayerTableRecord
  2
RF_TOP_POUR
 70
0
 62
3
  6
Continuous
370
-3
390
13
347
21
  0
LAYER
  5
8C
330
1
100
AcDbSymbolTableRecord
100
AcDbLayerTableRecord
  2
RF_BOARD_OUTLINE
 70
0
 62
7
  6
Continuous
370
-3
390
13
347
21
  0
LAYER
  5
8D
330
1
100
AcDbSymbolTableRecord
100
AcDbLayerTableRecord
  2
RF_VIA
 70
0
 62
1
  6
Continuous
370
-3
390
13
347
21
  0
LAYER
  5
8E
330
1
100
AcDbSymbolTableRecord
100
AcDbLayerTableRecord
  2
RF_RESISTOR
 70
0
 62
5
  6
Continuous
370
-3
390
13
347
21
  0
LAYER
  5
8F
330
1
100
AcDbSymbolTableRecord
100
AcDbLayerTableRecord
  2
RF_PORT
 70
0
 62
4
  6
Continuous
370
-3
390
13
347
21
  0
ENDTAB
  0
TABLE
  2
STYLE
  5
5
330
0
100
AcDbSymbolTable
 70
26
  0
STYLE
  5
29
330
5
100
AcDbSymbolTableRecord
100
AcDbTextStyleTableRecord
  2
Standard
 70
0
 40
0.0
 41
1.0
 50
0.0
 71
0
 42
2.5
  3
txt
  4

  0
STYLE
  5
41
330
5
100
AcDbSymbolTableRecord
100
AcDbTextStyleTableRecord
  2
OpenSans-Light
 70
0
 40
0.0
 41
1.0
 50
0.0
 71
0
 42
2.5
  3
OpenSans-Light.ttf
  4

  0
STYLE
  5
42
330
5
100
AcDbSymbolTableRecord
100
AcDbTextStyleTableRecord
  2
OpenSans-Light-Italic
 70
0
 40
0.0
 41
1.0
 50
0.0
 71
0
 42
2.5
  3
OpenSans-LightItalic.ttf
  4

  0
STYLE
  5
43
330
5
100
AcDbSymbolTableRecord
100
AcDbTextStyleTableRecord
  2
OpenSans
 70
0
 40
0.0
 41
1.0
 50
0.0
 71
0
 42
2.5
  3
OpenSans-Regular.ttf
  4

  0
STYLE
  5
44
330
5
100
AcDbSymbolTableRecord
100
AcDbTextStyleTableRecord
  2
OpenSans-Italic
 70
0
 40
0.0
 41
1.0
 50
0.0
 71
0
 42
2.5
  3
OpenSans-Italic.ttf
  4

  0
STYLE
  5
45
330
5
100
AcDbSymbolTableRecord
100
AcDbTextStyleTableRecord
  2
OpenSans-SemiBold
 70
0
 40
0.0
 41
1.0
 50
0.0
 71
0
 42
2.5
  3
OpenSans-SemiBold.ttf
  4

  0
STYLE
  5
46
330
5
100
AcDbSymbolTableRecord
100
AcDbTextStyleTableRecord
  2
OpenSans-SemiBoldItalic
 70
0
 40
0.0
 41
1.0
 50
0.0
 71
0
 42
2.5
  3
OpenSans-SemiBoldItalic.ttf
  4

  0
STYLE
  5
47
330
5
100
AcDbSymbolTableRecord
100
AcDbTextStyleTableRecord
  2
OpenSans-Bold
 70
0
 40
0.0
 41
1.0
 50
0.0
 71
0
 42
2.5
  3
OpenSans-Bold.ttf
  4

  0
STYLE
  5
48
330
5
100
AcDbSymbolTableRecord
100
AcDbTextStyleTableRecord
  2
OpenSans-BoldItalic
 70
0
 40
0.0
 41
1.0
 50
0.0
 71
0
 42
2.5
  3
OpenSans-BoldItalic.ttf
  4

  0
STYLE
  5
49
330
5
100
AcDbSymbolTableRecord
100
AcDbTextStyleTableRecord
  2
OpenSans-ExtraBold
 70
0
 40
0.0
 41
1.0
 50
0.0
 71
0
 42
2.5
  3
OpenSans-ExtraBold.ttf
  4

  0
STYLE
  5
4A
330
5
100
AcDbSymbolTableRecord
100
AcDbTextStyleTableRecord
  2
OpenSans-ExtraBoldItalic
 70
0
 40
0.0
 41
1.0
 50
0.0
 71
0
 42
2.5
  3
OpenSans-ExtraBoldItalic.ttf
  4

  0
STYLE
  5
4B
330
5
100
AcDbSymbolTableRecord
100
AcDbTextStyleTableRecord
  2
OpenSansCondensed-Bold
 70
0
 40
0.0
 41
1.0
 50
0.0
 71
0
 42
2.5
  3
OpenSansCondensed-Bold.ttf
  4

  0
STYLE
  5
4C
330
5
100
AcDbSymbolTableRecord
100
AcDbTextStyleTableRecord
  2
OpenSansCondensed-Light
 70
0
 40
0.0
 41
1.0
 50
0.0
 71
0
 42
2.5
  3
OpenSansCondensed-Light.ttf
  4

  0
STYLE
  5
4D
330
5
100
AcDbSymbolTableRecord
100
AcDbTextStyleTableRecord
  2
OpenSansCondensed-Italic
 70
0
 40
0.0
 41
1.0
 50
0.0
 71
0
 42
2.5
  3
OpenSansCondensed-LightItalic.ttf
  4

  0
STYLE
  5
4E
330
5
100
AcDbSymbolTableRecord
100
AcDbTextStyleTableRecord
  2
LiberationSans
 70
0
 40
0.0
 41
1.0
 50
0.0
 71
0
 42
2.5
  3
LiberationSans-Regular.ttf
  4

  0
STYLE
  5
4F
330
5
100
AcDbSymbolTableRecord
100
AcDbTextStyleTableRecord
  2
LiberationSans-Bold
 70
0
 40
0.0
 41
1.0
 50
0.0
 71
0
 42
2.5
  3
LiberationSans-Bold.ttf
  4

  0
STYLE
  5
50
330
5
100
AcDbSymbolTableRecord
100
AcDbTextStyleTableRecord
  2
LiberationSans-BoldItalic
 70
0
 40
0.0
 41
1.0
 50
0.0
 71
0
 42
2.5
  3
LiberationSans-BoldItalic.ttf
  4

  0
STYLE
  5
51
330
5
100
AcDbSymbolTableRecord
100
AcDbTextStyleTableRecord
  2
LiberationSans-Italic
 70
0
 40
0.0
 41
1.0
 50
0.0
 71
0
 42
2.5
  3
LiberationSans-Italic.ttf
  4

  0
STYLE
  5
52
330
5
100
AcDbSymbolTableRecord
100
AcDbTextStyleTableRecord
  2
LiberationSerif
 70
0
 40
0.0
 41
1.0
 50
0.0
 71
0
 42
2.5
  3
LiberationSerif-Regular.ttf
  4

  0
STYLE
  5
53
330
5
100
AcDbSymbolTableRecord
100
AcDbTextStyleTableRecord
  2
LiberationSerif-Bold
 70
0
 40
0.0
 41
1.0
 50
0.0
 71
0
 42
2.5
  3
LiberationSerif-Bold.ttf
  4

  0
STYLE
  5
54
330
5
100
AcDbSymbolTableRecord
100
AcDbTextStyleTableRecord
  2
LiberationSerif-BoldItalic
 70
0
 40
0.0
 41
1.0
 50
0.0
 71
0
 42
2.5
  3
LiberationSerif-BoldItalic.ttf
  4

  0
STYLE
  5
55
330
5
100
AcDbSymbolTableRecord
100
AcDbTextStyleTableRecord
  2
LiberationSerif-Italic
 70
0
 40
0.0
 41
1.0
 50
0.0
 71
0
 42
2.5
  3
LiberationSerif-Italic.ttf
  4

  0
STYLE
  5
56
330
5
100
AcDbSymbolTableRecord
100
AcDbTextStyleTableRecord
  2
LiberationMono
 70
0
 40
0.0
 41
1.0
 50
0.0
 71
0
 42
2.5
  3
LiberationMono-Regular.ttf
  4

  0
STYLE
  5
57
330
5
100
AcDbSymbolTableRecord
100
AcDbTextStyleTableRecord
  2
LiberationMono-Bold
 70
0
 40
0.0
 41
1.0
 50
0.0
 71
0
 42
2.5
  3
LiberationMono-Bold.ttf
  4

  0
STYLE
  5
58
330
5
100
AcDbSymbolTableRecord
100
AcDbTextStyleTableRecord
  2
LiberationMono-BoldItalic
 70
0
 40
0.0
 41
1.0
 50
0.0
 71
0
 42
2.5
  3
LiberationMono-BoldItalic.ttf
  4

  0
STYLE
  5
59
330
5
100
AcDbSymbolTableRecord
100
AcDbTextStyleTableRecord
  2
LiberationMono-Italic
 70
0
 40
0.0
 41
1.0
 50
0.0
 71
0
 42
2.5
  3
LiberationMono-Italic.ttf
  4

  0
ENDTAB
  0
TABLE
  2
VIEW
  5
7
330
0
100
AcDbSymbolTable
 70
0
  0
ENDTAB
  0
TABLE
  2
UCS
  5
6
330
0
100
AcDbSymbolTable
 70
0
  0
ENDTAB
  0
TABLE
  2
APPID
  5
3
330
0
100
AcDbSymbolTable
 70
3
  0
APPID
  5
2A
330
3
100
AcDbSymbolTableRecord
100
AcDbRegAppTableRecord
  2
ACAD
 70
0
  0
APPID
  5
EC
330
3
100
AcDbSymbolTableRecord
100
AcDbRegAppTableRecord
  2
HATCHBACKGROUNDCOLOR
 70
0
  0
APPID
  5
ED
330
3
100
AcDbSymbolTableRecord
100
AcDbRegAppTableRecord
  2
EZDXF
 70
0
  0
ENDTAB
  0
TABLE
  2
DIMSTYLE
  5
4
330
0
100
AcDbSymbolTable
 70
12
100
AcDbDimStyleTable
  0
DIMSTYLE
105
2B
330
4
100
AcDbSymbolTableRecord
100
AcDbDimStyleTableRecord
  2
Standard
 70
0
 40
1.0
 41
2.5
 42
0.625
 43
3.75
 44
1.25
 45
0.0
 46
0.0
 47
0.0
 48
0.0
 49
2.5
140
2.5
141
2.5
142
0.0
143
0.03937007874
144
1.0
145
0.0
146
1.0
147
0.625
148
0.0
 69
0
 70
0
 71
0
 72
0
 73
0
 74
0
 75
0
 76
0
 77
1
 78
8
 79
3
170
0
171
3
172
1
173
0
174
0
175
0
176
0
177
0
178
0
179
2
271
2
272
2
273
2
274
3
275
0
276
0
277
2
278
44
279
0
280
0
281
0
282
0
283
0
284
8
285
0
286
0
288
0
289
3
290
0
371
-2
372
-2
  0
DIMSTYLE
105
73
330
4
100
AcDbSymbolTableRecord
100
AcDbDimStyleTableRecord
  2
EZDXF
 70
0
 40
1.0
 41
0.175
 42
0.125
 43
3.75
 44
0.375
 45
0.0
 46
0.0
 47
0.0
 48
0.0
 49
2.5
140
0.25
141
2.5
142
0.0
143
0.03937007874
144
100.0
145
0.0
146
0.5
147
0.1
148
0.0
 69
0
 70
0
 71
0
 72
0
 73
0
 74
0
 75
0
 76
0
 77
1
 78
12
 79
3
170
0
171
3
172
1
173
0
174
0
175
0
176
0
177
0
178
0
179
2
271
2
272
2
273
2
274
3
275
0
276
0
277
2
278
46
279
2
280
0
281
0
282
0
283
0
284
8
285
0
286
0
288
1
289
3
290
0
340
4C
342
74
371
-2
372
-2
  0
DIMSTYLE
105
7C
330
4
100
AcDbSymbolTableRecord
100
AcDbDimStyleTableRecord
  2
EZ_M_100_H25_CM
 70
0
 40
1.0
 41
0.25
 42
0.125
 43
3.75
 44
0.375
 45
0.0
 46
0.0
 47
0.0
 48
0.0
 49
2.5
140
0.25
141
2.5
142
0.125
143
0.03937007874
144
100.0
145
0.0
146
0.5
147
0.1
148
0.0
 69
0
 70
0
 71
0
 72
0
 73
0
 74
0
 75
0
 76
0
 77
1
 78
12
 79
3
170
0
171
3
172
1
173
0
174
0
175
0
176
0
177
0
178
0
179
2
271
2
272
2
273
2
274
3
275
0
276
0
277
2
278
46
279
2
280
0
281
0
282
0
283
0
284
8
285
0
286
0
288
1
289
3
290
0
340
4C
371
-2
372
-2
  0
DIMSTYLE
105
7D
330
4
100
AcDbSymbolTableRecord
100
AcDbDimStyleTableRecord
  2
EZ_M_50_H25_CM
 70
0
 40
1.0
 41
0.125
 42
0.0625
 43
3.75
 44
0.1875
 45
0.0
 46
0.0
 47
0.0
 48
0.0
 49
2.5
140
0.125
141
2.5
142
0.0625
143
0.03937007874
144
100.0
145
0.0
146
0.5
147
0.05
148
0.0
 69
0
 70
0
 71
0
 72
0
 73
0
 74
0
 75
0
 76
0
 77
1
 78
12
 79
3
170
0
171
3
172
1
173
0
174
0
175
0
176
0
177
0
178
0
179
2
271
2
272
2
273
2
274
3
275
0
276
0
277
2
278
46
279
2
280
0
281
0
282
0
283
0
284
8
285
0
286
0
288
1
289
3
290
0
340
4C
371
-2
372
-2
  0
DIMSTYLE
105
7E
330
4
100
AcDbSymbolTableRecord
100
AcDbDimStyleTableRecord
  2
EZ_M_25_H25_CM
 70
0
 40
1.0
 41
0.0625
 42
0.03125
 43
3.75
 44
0.09375
 45
0.0
 46
0.0
 47
0.0
 48
0.0
 49
2.5
140
0.0625
141
2.5
142
0.03125
143
0.03937007874
144
100.0
145
0.0
146
0.5
147
0.025
148
0.0
 69
0
 70
0
 71
0
 72
0
 73
0
 74
0
 75
0
 76
0
 77
1
 78
12
 79
3
170
0
171
3
172
1
173
0
174
0
175
0
176
0
177
0
178
0
179
2
271
2
272
2
273
2
274
3
275
0
276
0
277
2
278
46
279
2
280
0
281
0
282
0
283
0
284
8
285
0
286
0
288
1
289
3
290
0
340
4C
371
-2
372
-2
  0
DIMSTYLE
105
7F
330
4
100
AcDbSymbolTableRecord
100
AcDbDimStyleTableRecord
  2
EZ_M_20_H25_CM
 70
0
 40
1.0
 41
0.05
 42
0.025
 43
3.75
 44
0.07500000000000001
 45
0.0
 46
0.0
 47
0.0
 48
0.0
 49
2.5
140
0.05
141
2.5
142
0.025
143
0.03937007874
144
100.0
145
0.0
146
0.5
147
0.020000000000000004
148
0.0
 69
0
 70
0
 71
0
 72
0
 73
0
 74
0
 75
0
 76
0
 77
1
 78
12
 79
3
170
0
171
3
172
1
173
0
174
0
175
0
176
0
177
0
178
0
179
2
271
2
272
2
273
2
274
3
275
0
276
0
277
2
278
46
279
2
280
0
281
0
282
0
283
0
284
8
285
0
286
0
288
1
289
3
290
0
340
4C
371
-2
372
-2
  0
DIMSTYLE
105
80
330
4
100
AcDbSymbolTableRecord
100
AcDbDimStyleTableRecord
  2
EZ_M_10_H25_CM
 70
0
 40
1.0
 41
0.025
 42
0.0125
 43
3.75
 44
0.037500000000000006
 45
0.0
 46
0.0
 47
0.0
 48
0.0
 49
2.5
140
0.025
141
2.5
142
0.0125
143
0.03937007874
144
100.0
145
0.0
146
0.5
147
0.010000000000000002
148
0.0
 69
0
 70
0
 71
0
 72
0
 73
0
 74
0
 75
0
 76
0
 77
1
 78
12
 79
3
170
0
171
3
172
1
173
0
174
0
175
0
176
0
177
0
178
0
179
2
271
2
272
2
273
2
274
3
275
0
276
0
277
2
278
46
279
2
280
0
281
0
282
0
283
0
284
8
285
0
286
0
288
1
289
3
290
0
340
4C
371
-2
372
-2
  0
DIMSTYLE
105
81
330
4
100
AcDbSymbolTableRecord
100
AcDbDimStyleTableRecord
  2
EZ_M_5_H25_CM
 70
0
 40
1.0
 41
0.0125
 42
0.00625
 43
3.75
 44
0.018750000000000003
 45
0.0
 46
0.0
 47
0.0
 48
0.0
 49
2.5
140
0.0125
141
2.5
142
0.00625
143
0.03937007874
144
100.0
145
0.0
146
0.5
147
0.005000000000000001
148
0.0
 69
0
 70
0
 71
0
 72
0
 73
0
 74
0
 75
0
 76
0
 77
1
 78
12
 79
3
170
0
171
3
172
1
173
0
174
0
175
0
176
0
177
0
178
0
179
2
271
2
272
2
273
2
274
3
275
0
276
0
277
2
278
46
279
2
280
0
281
0
282
0
283
0
284
8
285
0
286
0
288
1
289
3
290
0
340
4C
371
-2
372
-2
  0
DIMSTYLE
105
82
330
4
100
AcDbSymbolTableRecord
100
AcDbDimStyleTableRecord
  2
EZ_M_1_H25_CM
 70
0
 40
1.0
 41
0.0025
 42
0.00125
 43
3.75
 44
0.00375
 45
0.0
 46
0.0
 47
0.0
 48
0.0
 49
2.5
140
0.0025
141
2.5
142
0.00125
143
0.03937007874
144
100.0
145
0.0
146
0.5
147
0.001
148
0.0
 69
0
 70
0
 71
0
 72
0
 73
0
 74
0
 75
0
 76
0
 77
1
 78
12
 79
3
170
0
171
3
172
1
173
0
174
0
175
0
176
0
177
0
178
0
179
2
271
2
272
2
273
2
274
3
275
0
276
0
277
2
278
46
279
2
280
0
281
0
282
0
283
0
284
8
285
0
286
0
288
1
289
3
290
0
340
4C
371
-2
372
-2
  0
DIMSTYLE
105
83
330
4
100
AcDbSymbolTableRecord
100
AcDbDimStyleTableRecord
  2
EZ_RADIUS
 70
0
 40
1.0
 41
0.25
 42
0.125
 43
3.75
 44
0.375
 45
0.0
 46
0.0
 47
0.0
 48
0.0
 49
2.5
140
0.25
141
0.0
142
0.0
143
0.03937007874
144
100.0
145
0.0
146
0.5
147
0.1
148
0.0
 69
0
 70
0
 71
0
 72
0
 73
0
 74
0
 75
0
 76
0
 77
1
 78
12
 79
3
170
0
171
3
172
0
173
0
174
0
175
0
176
0
177
0
178
0
179
2
271
2
272
2
273
2
274
3
275
0
276
0
277
2
278
46
279
1
280
0
281
0
282
0
283
0
284
8
285
0
286
0
288
1
289
3
290
0
340
4C
342
84
371
-2
372
-2
  0
DIMSTYLE
105
88
330
4
100
AcDbSymbolTableRecord
100
AcDbDimStyleTableRecord
  2
EZ_RADIUS_INSIDE
 70
0
 40
1.0
 41
0.25
 42
0.125
 43
3.75
 44
0.375
 45
0.0
 46
0.0
 47
0.0
 48
0.0
 49
2.5
140
0.25
141
0.0
142
0.0
143
0.03937007874
144
100.0
145
0.0
146
0.5
147
0.1
148
0.0
 69
0
 70
0
 71
0
 72
0
 73
0
 74
0
 75
0
 76
0
 77
0
 78
12
 79
3
170
0
171
3
172
0
173
0
174
1
175
0
176
0
177
0
178
0
179
2
271
2
272
2
273
2
274
3
275
0
276
0
277
2
278
46
279
0
280
0
281
0
282
0
283
0
284
8
285
0
286
0
288
1
289
0
290
0
340
4C
342
84
371
-2
372
-2
  0
DIMSTYLE
105
89
330
4
100
AcDbSymbolTableRecord
100
AcDbDimStyleTableRecord
  2
EZ_CURVED
 70
0
 40
1.0
 41
0.25
 42
0.125
 43
3.75
 44
0.375
 45
0.0
 46
0.0
 47
0.0
 48
0.0
 49
2.5
140
0.25
141
2.5
142
0.0
143
0.03937007874
144
100.0
145
0.0
146
0.5
147
0.1
148
0.0
 69
0
 70
0
 71
0
 72
0
 73
0
 74
0
 75
0
 76
0
 77
1
 78
12
 79
2
 90
2
170
0
171
3
172
1
173
0
174
0
175
0
176
0
177
0
178
0
179
2
271
2
272
2
273
2
274
3
275
0
276
0
277
2
278
46
279
2
280
0
281
0
282
0
283
0
284
8
285
0
286
0
288
1
289
3
290
0
340
4C
371
-2
372
-2
  0
ENDTAB
  0
TABLE
  2
BLOCK_RECORD
  5
9
330
0
100
AcDbSymbolTable
 70
5
  0
BLOCK_RECORD
  5
17
330
9
100
AcDbSymbolTableRecord
100
AcDbBlockTableRecord
  2
*Model_Space
340
1A
 70
0
280
1
281
0
  0
BLOCK_RECORD
  5
1B
330
9
100
AcDbSymbolTableRecord
100
AcDbBlockTableRecord
  2
*Paper_Space
340
1E
 70
0
280
1
281
0
  0
BLOCK_RECORD
  5
74
330
9
100
AcDbSymbolTableRecord
100
AcDbBlockTableRecord
  2
_ARCHTICK
340
0
 70
0
280
1
281
0
  0
BLOCK_RECORD
  5
78
330
9
100
AcDbSymbolTableRecord
100
AcDbBlockTableRecord
  2
_CLOSEDFILLED
340
0
 70
0
280
1
281
0
  0
BLOCK_RECORD
  5
84
330
9
100
AcDbSymbolTableRecord
100
AcDbBlockTableRecord
  2
_CLOSEDBLANK
340
0
 70
0
280
1
281
0
  0
ENDTAB
  0
ENDSEC
  0
SECTION
  2
BLOCKS
  0
BLOCK
  5
18
330
17
100
AcDbEntity
  8
0
100
AcDbBlockBegin
  2
*Model_Space
 70
0
 10
0.0
 20
0.0
 30
0.0
  3
*Model_Space
  1

  0
ENDBLK
  5
19
330
17
100
AcDbEntity
  8
0
100
AcDbBlockEnd
  0
BLOCK
  5
1C
330
1B
100
AcDbEntity
  8
0
100
AcDbBlockBegin
  2
*Paper_Space
 70
0
 10
0.0
 20
0.0
 30
0.0
  3
*Paper_Space
  1

  0
ENDBLK
  5
1D
330
1B
100
AcDbEntity
  8
0
100
AcDbBlockEnd
  0
BLOCK
  5
75
330
74
100
AcDbEntity
  8
0
100
AcDbBlockBegin
  2
_ARCHTICK
 70
0
 10
0.0
 20
0.0
 30
0.0
  3
_ARCHTICK
  1

  0
LWPOLYLINE
  5
77
330
74
100
AcDbEntity
  8
0
  6
BYBLOCK
 62
0
100
AcDbPolyline
 90
2
 70
0
 43
0.15
 10
-0.5
 20
-0.5
 10
0.5
 20
0.5
  0
ENDBLK
  5
76
330
74
100
AcDbEntity
  8
0
100
AcDbBlockEnd
  0
BLOCK
  5
79
330
78
100
AcDbEntity
  8
0
100
AcDbBlockBegin
  2
_CLOSEDFILLED
 70
0
 10
0.0
 20
0.0
 30
0.0
  3
_CLOSEDFILLED
  1

  0
SOLID
  5
7B
330
78
100
AcDbEntity
  8
0
  6
BYBLOCK
 62
0
100
AcDbTrace
 10
-1.0
 20
0.16439898372402537
 30
0.0
 11
0.0
 21
0.0
 31
0.0
 12
-1.0
 22
-0.16439898372402537
 32
0.0
 13
-1.0
 23
-0.16439898372402537
 33
0.0
  0
ENDBLK
  5
7A
330
78
100
AcDbEntity
  8
0
100
AcDbBlockEnd
  0
BLOCK
  5
85
330
84
100
AcDbEntity
  8
0
100
AcDbBlockBegin
  2
_CLOSEDBLANK
 70
0
 10
0.0
 20
0.0
 30
0.0
  3
_CLOSEDBLANK
  1

  0
LWPOLYLINE
  5
87
330
84
100
AcDbEntity
  8
0
  6
BYBLOCK
 62
0
100
AcDbPolyline
 90
3
 70
1
 10
-1.0
 20
0.16439898372402537
 10
0.0
 20
0.0
 10
-1.0
 20
-0.16439898372402537
  0
ENDBLK
  5
86
330
84
100
AcDbEntity
  8
0
100
AcDbBlockEnd
  0
ENDSEC
  0
SECTION
  2
ENTITIES
  0
LWPOLYLINE
  5
90
330
17
100
AcDbEntity
  8
RF_BOARD_OUTLINE
100
AcDbPolyline
 90
5
 70
1
 10
6.0
 20
-6.5
 10
6.0
 20
6.5
 10
-4.509301698850381
 20
6.5
 10
-4.509301698850381
 20
-6.5
 10
6.0
 20
-6.5
  0
LWPOLYLINE
  5
91
330
17
100
AcDbEntity
  8
RF_TOP_POUR
100
AcDbPolyline
 90
76
 70
1
 10
-4.509301698850381
 20
-6.5
 10
-4.509301698850381
 20
-3.511923918872394
 10
-3.2393810429488488
 20
-3.511923918872394
 10
-3.2390109191729715
 20
-3.521344198023203
 10
-2.9992488042728875
 20
-3.511923918872394
 10
-2.759301698850381
 20
-3.511923918872394
 10
-2.759301698850381
 20
-3.495213028862673
 10
-2.709604456232133
 20
-3.4893309725781636
 10
-2.6795936363950648
 20
-3.4845777256745887
 10
-2.55444721360034
 20
-3.459684554447395
 10
-2.5249018425590615
 20
-3.4525913384312426
 10
-2.402094300124593
 20
-3.417956029377218
 10
-2.3731965349163784
 20
-3.4085665762839548
 10
-2.2534850221789435
 20
-3.364402667600834
 10
-2.2254130271358066
 20
-3.352774866531097
 10
-2.1095356053795022
 20
-3.299354643401883
 10
-2.0824624536857685
 20
-3.2855601836159023
 10
-1.9711335457489132
 20
-3.22321299948023
 10
-1.94522615238751
 20
-3.2073369284097106
 10
-1.8391321380081334
 20
-3.136447174390309
 10
-1.8145502306742078
 20
-3.118587373292725
 10
-1.714345214730818
 20
-3.0395921082963704
 10
-1.691240349057394
 20
-3.0198586887844714
 10
-1.5975421287948153
 20
-2.9332449448884477
 10
-1.5760567539619361
 20
-2.9117595700555685
 10
-1.4894430100659022
 20
-2.8180613497929787
 10
-1.4697095905540216
 20
-2.794956484119577
 10
-1.3907143255576528
 20
-2.6947514681761686
 10
-1.3728545244600723
 20
-2.6701695608422473
 10
-1.3019647704406707
 20
-2.5640755464628726
 10
-1.286088699370149
 20
-2.538168153101464
 10
-1.2237415152344786
 20
-2.426839245164612
 10
-1.2099470554484983
 20
-2.39976609347088
 10
-1.1565268323192825
 20
-2.283888671714571
 10
-1.1448990312495504
 20
-2.2558166766714467
 10
-1.1007351225664226
 20
-2.136105163933993
 10
-1.0913456694731627
 20
-2.1072073987257873
 10
-1.0567103604191388
 20
-1.9843998562913217
 10
-1.0496171444029847
 20
-1.9548544852500342
 10
-1.0247239731757922
 20
-1.829708062455319
 10
-1.019970726272218
 20
-1.7996972426182527
 10
-1.0140886699877083
 20
-1.7500000000000002
 10
-0.9973777799779868
 20
-1.7500000000000002
 10
-0.9973777799779868
 20
-1.5100528945774963
 10
-0.9879575008271771
 20
-1.2702907796774106
 10
-0.9973777799779868
 20
-1.269920655901533
 10
-0.9973777799779868
 20
-1.0659270000488386
 10
-0.9093016988503808
 20
-1.0659270000488386
 10
-0.9093016988503808
 20
-0.8868751659135635
 10
2.300885135781969
 20
-0.8868751659135635
 10
2.3012580153269973
 20
-0.8963655840729152
 10
2.5428052872012836
 20
-0.8868751659135635
 10
2.7845389269512104
 20
-0.8868751659135635
 10
2.7845389269512104
 20
-0.8505732793620682
 10
2.7973617165834335
 20
-0.8469568786667788
 10
2.819465721218434
 20
-0.8397748521952437
 10
2.8629664362452463
 20
-0.8237265911536485
 10
2.8844388063083386
 20
-0.8148324442572218
 10
2.9265462910990294
 20
-0.7954206278840608
 10
2.947254642288495
 20
-0.7848691959359603
 10
2.9877092901971665
 20
-0.7622135045342595
 10
3.0075259486416988
 20
-0.7500698406211499
 10
3.0460783433114496
 20
-0.7243099540621885
 10
3.0648811327220224
 20
-0.7106489279102787
 10
3.1012935858197594
 20
-0.6819436644607116
 10
3.1189665807471014
 20
-0.6668495008389754
 10
3.1530145973910915
 20
-0.6353758379934509
 10
3.169448837944614
 20
-0.6189415974399284
 10
3.2009225007901354
 20
-0.5848935807959418
 10
3.216016664411877
 20
-0.5672205858685937
 10
3.24472192786143
 20
-0.5308081327708744
 10
3.258382954013353
 20
-0.5120053433602842
 10
3.2584373601167647
 20
-0.5119239188723941
 10
6.0
 20
-0.5119239188723941
 10
6.0
 20
-6.5
 10
-4.509301698850381
 20
-6.5
  0
LWPOLYLINE
  5
92
330
17
100
AcDbEntity
  8
RF_TOP_POUR
100
AcDbPolyline
 90
49
 70
1
 10
-2.9318091327337923
 20
2.4846364106089
 10
-2.854794334056207
 20
2.4755211084976443
 10
-2.7787321246614978
 20
2.460391394358815
 10
-2.7040914533638123
 20
2.4393405479112142
 10
-2.6313325047222746
 20
2.412498354623317
 10
-2.5609038618500337
 20
2.3800303055426677
 10
-2.4932397407503113
 20
2.3421365769885747
 10
-2.4287573132303004
 20
2.299050796398524
 10
-2.367854134898232
 20
2.251038601937321
 10
-2.3109056941008834
 20
2.198396004749492
 10
-2.2582630969130633
 20
2.1414475639521533
 10
-2.210250902451856
 20
2.080544385620079
 10
-2.1671651218618027
 20
2.0160619581000643
 10
-2.1292713933077145
 20
1.9483978370003496
 10
-2.096803344227064
 20
1.8779691941281071
 10
-2.069961150939166
 20
1.8052102454865655
 10
-2.0489103044915673
 20
1.730569574188887
 10
-2.033780590352737
 20
1.654507364794173
 10
-2.024665288241481
 20
1.5774925661165835
 10
-2.021225617722775
 20
1.4899471054225102
 10
-2.021225617722775
 20
1.0659270000488386
 10
-2.109301698850381
 20
1.0659270000488386
 10
-2.109301698850381
 20
-1.0659270000488386
 10
-2.021225617722775
 20
-1.0659270000488386
 10
-2.021225617722775
 20
-1.4899471054225102
 10
-2.024665288241481
 20
-1.5774925661165835
 10
-2.033780590352737
 20
-1.654507364794173
 10
-2.0489103044915673
 20
-1.730569574188887
 10
-2.069961150939166
 20
-1.8052102454865655
 10
-2.096803344227064
 20
-1.8779691941281071
 10
-2.1292713933077145
 20
-1.9483978370003496
 10
-2.1671651218618027
 20
-2.0160619581000643
 10
-2.210250902451856
 20
-2.080544385620079
 10
-2.2582630969130633
 20
-2.1414475639521533
 10
-2.3109056941008834
 20
-2.198396004749492
 10
-2.367854134898232
 20
-2.251038601937321
 10
-2.4287573132303004
 20
-2.299050796398524
 10
-2.4932397407503113
 20
-2.3421365769885747
 10
-2.5609038618500337
 20
-2.3800303055426677
 10
-2.6313325047222746
 20
-2.412498354623317
 10
-2.7040914533638123
 20
-2.4393405479112142
 10
-2.7787321246614978
 20
-2.460391394358815
 10
-2.854794334056207
 20
-2.4755211084976443
 10
-2.9318091327337923
 20
-2.4846364106089
 10
-3.0193545934278645
 20
-2.488076081127606
 10
-4.509301698850381
 20
-2.488076081127606
 10
-4.509301698850381
 20
2.488076081127606
 10
-3.0193545934278645
 20
2.488076081127606
 10
-2.9318091327337923
 20
2.4846364106089
  0
LWPOLYLINE
  5
93
330
17
100
AcDbEntity
  8
RF_TOP_POUR
100
AcDbPolyline
 90
76
 70
1
 10
6.0
 20
0.5119239188723941
 10
3.2584373601167647
 20
0.5119239188723941
 10
3.258382954013353
 20
0.5120053433602842
 10
3.24472192786143
 20
0.5308081327708744
 10
3.216016664411877
 20
0.5672205858685937
 10
3.2009225007901354
 20
0.5848935807959418
 10
3.169448837944614
 20
0.6189415974399284
 10
3.1530145973910915
 20
0.6353758379934509
 10
3.1189665807471014
 20
0.6668495008389754
 10
3.1012935858197594
 20
0.6819436644607116
 10
3.0648811327220224
 20
0.7106489279102787
 10
3.0460783433114496
 20
0.7243099540621885
 10
3.0075259486416988
 20
0.7500698406211499
 10
2.9877092901971665
 20
0.7622135045342595
 10
2.947254642288495
 20
0.7848691959359603
 10
2.9265462910990294
 20
0.7954206278840608
 10
2.8844388063083386
 20
0.8148324442572218
 10
2.8629664362452463
 20
0.8237265911536485
 10
2.819465721218434
 20
0.8397748521952437
 10
2.7973617165834335
 20
0.8469568786667788
 10
2.7845389269512104
 20
0.8505732793620682
 10
2.7845389269512104
 20
0.8868751659135635
 10
2.5428052872012836
 20
0.8868751659135635
 10
2.3012580153269973
 20
0.8963655840729152
 10
2.300885135781969
 20
0.8868751659135635
 10
-0.9093016988503808
 20
0.8868751659135635
 10
-0.9093016988503808
 20
1.0659270000488386
 10
-0.9973777799779868
 20
1.0659270000488386
 10
-0.9973777799779868
 20
1.269920655901533
 10
-0.9879575008271771
 20
1.2702907796774106
 10
-0.9973777799779868
 20
1.5100528945774963
 10
-0.9973777799779868
 20
1.7500000000000002
 10
-1.0140886699877083
 20
1.7500000000000002
 10
-1.019970726272218
 20
1.7996972426182527
 10
-1.0247239731757922
 20
1.829708062455319
 10
-1.0496171444029847
 20
1.9548544852500342
 10
-1.0567103604191388
 20
1.9843998562913217
 10
-1.0913456694731627
 20
2.1072073987257873
 10
-1.1007351225664226
 20
2.136105163933993
 10
-1.1448990312495504
 20
2.2558166766714467
 10
-1.1565268323192825
 20
2.283888671714571
 10
-1.2099470554484983
 20
2.39976609347088
 10
-1.2237415152344786
 20
2.426839245164612
 10
-1.286088699370149
 20
2.538168153101464
 10
-1.3019647704406707
 20
2.5640755464628726
 10
-1.3728545244600723
 20
2.6701695608422473
 10
-1.3907143255576528
 20
2.6947514681761686
 10
-1.4697095905540216
 20
2.794956484119577
 10
-1.4894430100659022
 20
2.8180613497929787
 10
-1.5760567539619361
 20
2.9117595700555685
 10
-1.5975421287948153
 20
2.9332449448884477
 10
-1.691240349057394
 20
3.0198586887844714
 10
-1.714345214730818
 20
3.0395921082963704
 10
-1.8145502306742078
 20
3.118587373292725
 10
-1.8391321380081334
 20
3.136447174390309
 10
-1.94522615238751
 20
3.2073369284097106
 10
-1.9711335457489132
 20
3.22321299948023
 10
-2.0824624536857685
 20
3.2855601836159023
 10
-2.1095356053795022
 20
3.299354643401883
 10
-2.2254130271358066
 20
3.352774866531097
 10
-2.2534850221789435
 20
3.364402667600834
 10
-2.3731965349163784
 20
3.4085665762839548
 10
-2.402094300124593
 20
3.417956029377218
 10
-2.5249018425590615
 20
3.4525913384312426
 10
-2.55444721360034
 20
3.459684554447395
 10
-2.6795936363950648
 20
3.4845777256745887
 10
-2.709604456232133
 20
3.4893309725781636
 10
-2.759301698850381
 20
3.495213028862673
 10
-2.759301698850381
 20
3.511923918872394
 10
-2.9992488042728875
 20
3.511923918872394
 10
-3.2390109191729715
 20
3.521344198023203
 10
-3.2393810429488488
 20
3.511923918872394
 10
-4.509301698850381
 20
3.511923918872394
 10
-4.509301698850381
 20
6.5
 10
6.0
 20
6.5
 10
6.0
 20
0.5119239188723941
  0
LWPOLYLINE
  5
94
330
17
100
AcDbEntity
  8
RF_TOP_SIGNAL
100
AcDbPolyline
 90
258
 70
1
 10
-2.91217922485426
 20
-2.734058039078512
 10
-2.815655543206825
 20
-2.7226337085054957
 10
-2.720325754502812
 20
-2.7036714345525774
 10
-2.6267775985899577
 20
-2.677288125944275
 10
-2.535587830957385
 20
-2.6436464445514996
 10
-2.447318666846207
 20
-2.602953802527025
 10
-2.362514315005662
 20
-2.555461083540617
 10
-2.2816976224651517
 20
-2.5014610959977563
 10
-2.2053668510084616
 20
-2.4412867677784598
 10
-2.1339926052241838
 20
-2.3753090936261976
 10
-2.0680149310719216
 20
-2.3039348478419197
 10
-2.007840602852624
 20
-2.2276040763852283
 10
-1.9538406153097618
 20
-2.1467873838447153
 10
-1.906347896323356
 20
-2.0619830320041745
 10
-1.8656552542988833
 20
-1.973713867893
 10
-1.8320135729061056
 20
-1.8825241002604205
 10
-1.8056302642978035
 20
-1.7889759443475675
 10
-1.7866679903448854
 20
-1.6936461556435547
 10
-1.7752436597718693
 20
-1.5971224739961207
 10
-1.771225617722775
 20
-1.4948564748653492
 10
-1.771225617722775
 20
-0.7659270000488385
 10
-1.809301698850381
 20
-0.7659270000488385
 10
-1.809301698850381
 20
-0.16592700004883854
 10
-1.2093016988503809
 20
-0.16592700004883854
 10
-1.2093016988503809
 20
-0.2949788341841135
 10
2.5311819361439865
 20
-0.2949788341841135
 10
2.5576357948467305
 20
-0.293939459244917
 10
2.580590262871188
 20
-0.2912226189176178
 10
2.603260809096076
 20
-0.28671316689823545
 10
2.6255076620651945
 20
-0.28043890545801453
 10
2.647193662532164
 20
-0.27243851750513676
 10
2.66818510909277
 20
-0.26276132809173375
 10
2.6883525824986156
 20
-0.25146700030852487
 10
2.7075717435697753
 20
-0.2386251674420457
 10
2.725724099787231
 20
-0.224315003662258
 10
2.7426977358386355
 20
-0.20862473588747324
 10
2.758388003613419
 20
-0.1916510998360702
 10
2.772698167393206
 20
-0.17349874361861514
 10
2.7855400002596866
 20
-0.15427958254745364
 10
2.7968343280428942
 20
-0.1341121091416098
 10
2.8065115174562987
 20
-0.11312066258100126
 10
2.814511905409177
 20
-0.09143466211403017
 10
2.820786166849397
 20
-0.0691878091449138
 10
2.825295618868779
 20
-0.04651726292002909
 10
2.8280124591960787
 20
-0.02356279489556588
 10
2.8289382439289255
 20
0.0
 10
2.8280124591960787
 20
0.02356279489556588
 10
2.825295618868779
 20
0.04651726292002909
 10
2.820786166849397
 20
0.0691878091449138
 10
2.814511905409177
 20
0.09143466211403017
 10
2.8065115174562987
 20
0.11312066258100126
 10
2.7968343280428942
 20
0.1341121091416098
 10
2.7855400002596866
 20
0.15427958254745364
 10
2.772698167393206
 20
0.17349874361861514
 10
2.758388003613419
 20
0.1916510998360702
 10
2.7426977358386355
 20
0.20862473588747324
 10
2.725724099787231
 20
0.224315003662258
 10
2.7075717435697753
 20
0.2386251674420457
 10
2.6883525824986156
 20
0.25146700030852487
 10
2.66818510909277
 20
0.26276132809173375
 10
2.647193662532164
 20
0.27243851750513676
 10
2.6255076620651945
 20
0.28043890545801453
 10
2.603260809096076
 20
0.28671316689823545
 10
2.580590262871188
 20
0.2912226189176178
 10
2.5576357948467305
 20
0.293939459244917
 10
2.5311819361439865
 20
0.2949788341841135
 10
-1.2093016988503809
 20
0.2949788341841135
 10
-1.2093016988503809
 20
0.16592700004883854
 10
-1.809301698850381
 20
0.16592700004883854
 10
-1.809301698850381
 20
0.7659270000488385
 10
-1.771225617722775
 20
0.7659270000488385
 10
-1.771225617722775
 20
1.4948564748653492
 10
-1.7752436597718693
 20
1.5971224739961207
 10
-1.7866679903448854
 20
1.6936461556435547
 10
-1.8056302642978035
 20
1.7889759443475675
 10
-1.8320135729061056
 20
1.8825241002604205
 10
-1.8656552542988833
 20
1.973713867893
 10
-1.906347896323356
 20
2.0619830320041745
 10
-1.9538406153097618
 20
2.1467873838447153
 10
-2.007840602852624
 20
2.2276040763852283
 10
-2.0680149310719216
 20
2.3039348478419197
 10
-2.1339926052241838
 20
2.3753090936261976
 10
-2.2053668510084616
 20
2.4412867677784598
 10
-2.2816976224651517
 20
2.5014610959977563
 10
-2.362514315005662
 20
2.555461083540617
 10
-2.447318666846207
 20
2.602953802527025
 10
-2.535587830957385
 20
2.6436464445514996
 10
-2.6267775985899577
 20
2.677288125944275
 10
-2.720325754502812
 20
2.7036714345525774
 10
-2.815655543206825
 20
2.7226337085054957
 10
-2.91217922485426
 20
2.734058039078512
 10
-3.0144452239850255
 20
2.738076081127606
 10
-4.509301698850381
 20
2.738076081127606
 10
-4.509301698850381
 20
3.261923918872394
 10
-3.009301698850381
 20
3.261923918872394
 10
-3.009301698850381
 20
3.0
 10
-2.9990186140525577
 20
3.2617219850232555
 10
-2.88132997046079
 20
3.2570979856229476
 10
-2.8608271995023946
 20
3.2554843825538877
 10
-2.743864145533816
 20
3.2416408928469025
 10
-2.723551179613493
 20
3.2384236351082807
 10
-2.6080348313899813
 20
3.2154460048120894
 10
-2.5880369066973765
 20
3.210644927867711
 10
-2.4746794609188134
 20
3.1786748217139262
 10
-2.4551198713096425
 20
3.172319525799674
 10
-2.344620214324429
 20
3.1315540501238734
 10
-2.325619551172855
 20
3.1236837177524093
 10
-2.2186589501111698
 20
3.074374205268031
 10
-2.2003343588238837
 20
3.065037359655575
 10
-2.0975722613592804
 20
3.0074878199041613
 10
-2.080036719135115
 20
2.9967420258087314
 10
-1.9821066877703286
 20
2.9313072708400147
 10
-1.9654683070582522
 20
2.919218779655547
 10
-1.8729741130016864
 20
2.8463022364931723
 10
-1.857335474951615
 20
2.8329455777876524
 10
-1.770847375667069
 20
2.7529968011674275
 10
-1.7563048976829536
 20
2.738454323183312
 10
-1.6763561210627287
 20
2.651966223898766
 10
-1.6629994623572089
 20
2.636327585848695
 10
-1.590082919194834
 20
2.543833391792129
 10
-1.5779944280103668
 20
2.527195011080053
 10
-1.5125596730416495
 20
2.429264979715267
 10
-1.5018138789462192
 20
2.4117294374911
 10
-1.4442643391948058
 20
2.3089673400264967
 10
-1.4349274935823497
 20
2.290642748739211
 10
-1.3856179810979716
 20
2.183682147677526
 10
-1.377747648726507
 20
2.1646814845259517
 10
-1.3369821730507068
 20
2.054181827540738
 10
-1.3306268771364547
 20
2.034622237931567
 10
-1.2986567709826702
 20
1.9212647921530042
 10
-1.2938556940382921
 20
1.9012668674604005
 10
-1.2708780637421002
 20
1.7857505192368888
 10
-1.2676608060034784
 20
1.7654375533165652
 10
-1.2538173162964932
 20
1.6484744993479863
 10
-1.2522037132274333
 20
1.6279717283895914
 10
-1.2475797138271252
 20
1.510283084797824
 10
-1.509301698850381
 20
1.5000000000000002
 10
-1.2473777799779868
 20
1.5000000000000002
 10
-1.2473777799779868
 20
0.7659270000488385
 10
-1.2093016988503809
 20
0.7659270000488385
 10
-1.2093016988503809
 20
0.6368751659135635
 10
2.5345389269512104
 20
0.6368751659135635
 10
2.5345389269512104
 20
0.4659270000488386
 10
2.54125032044741
 20
0.636743371072967
 10
2.5777699753353307
 20
0.6353085099245374
 10
2.5911513843550615
 20
0.6342553701949663
 10
2.62744588342658
 20
0.6299596331457974
 10
2.640703413637265
 20
0.6278598466432924
 10
2.676548989236461
 20
0.62072971834077
 10
2.689600903555776
 20
0.6175962309473688
 10
2.724776555789216
 20
0.607675671003486
 10
2.737542384825179
 20
0.6035278017109595
 10
2.771831244099753
 20
0.5908779736766914
 10
2.7842322822712897
 20
0.5857412954785343
 10
2.817422946367367
 20
0.5704401897502066
 10
2.8293827371503864
 20
0.5643463719756294
 10
2.8612705745867983
 20
0.5464883249581914
 10
2.8727153818940865
 20
0.5394749380201754
 10
2.9031037935492567
 20
0.5191700505118929
 10
2.913963056337984
 20
0.5112803342730966
 10
2.942664687548885
 20
0.4886537926575184
 10
2.9528714548528834
 20
0.4799363898421537
 10
2.9797093505188403
 20
0.4551276942724284
 10
2.98920069422359
 20
0.4456363505676787
 10
3.014009389793315
 20
0.41879845490172196
 10
3.0227267926086796
 20
0.408591687597724
 10
3.045353334224258
 20
0.3798900563868226
 10
3.0532430504630548
 20
0.3690307935980952
 10
3.073547937971337
 20
0.33864238194292506
 10
3.0805613249093535
 20
0.32719757463563603
 10
3.0984193719267914
 20
0.2953097371992237
 10
3.104513189701368
 20
0.28334994641620603
 10
3.114390723692159
 20
0.26192391887239413
 10
6.0
 20
0.26192391887239413
 10
6.0
 20
-0.26192391887239413
 10
3.114390723692159
 20
-0.26192391887239413
 10
3.104513189701368
 20
-0.28334994641620603
 10
3.0984193719267914
 20
-0.2953097371992237
 10
3.0805613249093535
 20
-0.32719757463563603
 10
3.073547937971337
 20
-0.33864238194292506
 10
3.0532430504630548
 20
-0.3690307935980952
 10
3.045353334224258
 20
-0.3798900563868226
 10
3.0227267926086796
 20
-0.408591687597724
 10
3.014009389793315
 20
-0.41879845490172196
 10
2.98920069422359
 20
-0.4456363505676787
 10
2.9797093505188403
 20
-0.4551276942724284
 10
2.9528714548528834
 20
-0.4799363898421537
 10
2.942664687548885
 20
-0.4886537926575184
 10
2.913963056337984
 20
-0.5112803342730966
 10
2.9031037935492567
 20
-0.5191700505118929
 10
2.8727153818940865
 20
-0.5394749380201754
 10
2.8612705745867983
 20
-0.5464883249581914
 10
2.8293827371503864
 20
-0.5643463719756294
 10
2.817422946367367
 20
-0.5704401897502066
 10
2.7842322822712897
 20
-0.5857412954785343
 10
2.771831244099753
 20
-0.5908779736766914
 10
2.737542384825179
 20
-0.6035278017109595
 10
2.724776555789216
 20
-0.607675671003486
 10
2.689600903555776
 20
-0.6175962309473688
 10
2.676548989236461
 20
-0.62072971834077
 10
2.640703413637265
 20
-0.6278598466432924
 10
2.62744588342658
 20
-0.6299596331457974
 10
2.5911513843550615
 20
-0.6342553701949663
 10
2.5777699753353307
 20
-0.6353085099245374
 10
2.54125032044741
 20
-0.636743371072967
 10
2.5345389269512104
 20
-0.4659270000488386
 10
2.5345389269512104
 20
-0.6368751659135635
 10
-1.2093016988503809
 20
-0.6368751659135635
 10
-1.2093016988503809
 20
-0.7659270000488385
 10
-1.2473777799779868
 20
-0.7659270000488385
 10
-1.2473777799779868
 20
-1.5000000000000002
 10
-1.509301698850381
 20
-1.5000000000000002
 10
-1.2475797138271252
 20
-1.510283084797824
 10
-1.2522037132274333
 20
-1.6279717283895914
 10
-1.2538173162964932
 20
-1.6484744993479863
 10
-1.2676608060034784
 20
-1.7654375533165652
 10
-1.2708780637421002
 20
-1.7857505192368888
 10
-1.2938556940382921
 20
-1.9012668674604005
 10
-1.2986567709826702
 20
-1.9212647921530042
 10
-1.3306268771364547
 20
-2.034622237931567
 10
-1.3369821730507068
 20
-2.054181827540738
 10
-1.377747648726507
 20
-2.1646814845259517
 10
-1.3856179810979716
 20
-2.183682147677526
 10
-1.4349274935823497
 20
-2.290642748739211
 10
-1.4442643391948058
 20
-2.3089673400264967
 10
-1.5018138789462192
 20
-2.4117294374911
 10
-1.5125596730416495
 20
-2.429264979715267
 10
-1.5779944280103668
 20
-2.527195011080053
 10
-1.590082919194834
 20
-2.543833391792129
 10
-1.6629994623572089
 20
-2.636327585848695
 10
-1.6763561210627287
 20
-2.651966223898766
 10
-1.7563048976829536
 20
-2.738454323183312
 10
-1.770847375667069
 20
-2.7529968011674275
 10
-1.857335474951615
 20
-2.8329455777876524
 10
-1.8729741130016864
 20
-2.8463022364931723
 10
-1.9654683070582522
 20
-2.919218779655547
 10
-1.9821066877703286
 20
-2.9313072708400147
 10
-2.080036719135115
 20
-2.9967420258087314
 10
-2.0975722613592804
 20
-3.0074878199041613
 10
-2.2003343588238837
 20
-3.065037359655575
 10
-2.2186589501111698
 20
-3.074374205268031
 10
-2.325619551172855
 20
-3.1236837177524093
 10
-2.344620214324429
 20
-3.1315540501238734
 10
-2.4551198713096425
 20
-3.172319525799674
 10
-2.4746794609188134
 20
-3.1786748217139262
 10
-2.5880369066973765
 20
-3.210644927867711
 10
-2.6080348313899813
 20
-3.2154460048120894
 10
-2.723551179613493
 20
-3.2384236351082807
 10
-2.743864145533816
 20
-3.2416408928469025
 10
-2.8608271995023946
 20
-3.2554843825538877
 10
-2.88132997046079
 20
-3.2570979856229476
 10
-2.9990186140525577
 20
-3.2617219850232555
 10
-3.009301698850381
 20
-3.0
 10
-3.009301698850381
 20
-3.261923918872394
 10
-4.509301698850381
 20
-3.261923918872394
 10
-4.509301698850381
 20
-2.738076081127606
 10
-3.0144452239850255
 20
-2.738076081127606
 10
-2.91217922485426
 20
-2.734058039078512
  0
CIRCLE
  5
95
330
17
100
AcDbEntity
  8
RF_VIA
100
AcDbCircle
 10
4.5
 20
-1.1619
 30
0.0
 40
0.15
  0
CIRCLE
  5
96
330
17
100
AcDbEntity
  8
RF_VIA
100
AcDbCircle
 10
4.5
 20
-1.1619
 30
0.0
 40
0.3
  0
CIRCLE
  5
97
330
17
100
AcDbEntity
  8
RF_VIA
100
AcDbCircle
 10
4.5
 20
1.1619
 30
0.0
 40
0.15
  0
CIRCLE
  5
98
330
17
100
AcDbEntity
  8
RF_VIA
100
AcDbCircle
 10
4.5
 20
1.1619
 30
0.0
 40
0.3
  0
CIRCLE
  5
99
330
17
100
AcDbEntity
  8
RF_VIA
100
AcDbCircle
 10
2.0721
 20
1.5369
 30
0.0
 40
0.15
  0
CIRCLE
  5
9A
330
17
100
AcDbEntity
  8
RF_VIA
100
AcDbCircle
 10
2.0721
 20
1.5369
 30
0.0
 40
0.3
  0
CIRCLE
  5
9B
330
17
100
AcDbEntity
  8
RF_VIA
100
AcDbCircle
 10
0.8783
 20
1.5369
 30
0.0
 40
0.15
  0
CIRCLE
  5
9C
330
17
100
AcDbEntity
  8
RF_VIA
100
AcDbCircle
 10
0.8783
 20
1.5369
 30
0.0
 40
0.3
  0
CIRCLE
  5
9D
330
17
100
AcDbEntity
  8
RF_VIA
100
AcDbCircle
 10
-0.3155
 20
1.5369
 30
0.0
 40
0.15
  0
CIRCLE
  5
9E
330
17
100
AcDbEntity
  8
RF_VIA
100
AcDbCircle
 10
-0.3155
 20
1.5369
 30
0.0
 40
0.3
  0
CIRCLE
  5
9F
330
17
100
AcDbEntity
  8
RF_VIA
100
AcDbCircle
 10
-2.6712
 20
0.4659
 30
0.0
 40
0.15
  0
CIRCLE
  5
A0
330
17
100
AcDbEntity
  8
RF_VIA
100
AcDbCircle
 10
-2.6712
 20
0.4659
 30
0.0
 40
0.3
  0
CIRCLE
  5
A1
330
17
100
AcDbEntity
  8
RF_VIA
100
AcDbCircle
 10
-2.6758
 20
1.5487
 30
0.0
 40
0.15
  0
CIRCLE
  5
A2
330
17
100
AcDbEntity
  8
RF_VIA
100
AcDbCircle
 10
-2.6758
 20
1.5487
 30
0.0
 40
0.3
  0
CIRCLE
  5
A3
330
17
100
AcDbEntity
  8
RF_VIA
100
AcDbCircle
 10
-1.4407
 20
3.6505
 30
0.0
 40
0.15
  0
CIRCLE
  5
A4
330
17
100
AcDbEntity
  8
RF_VIA
100
AcDbCircle
 10
-1.4407
 20
3.6505
 30
0.0
 40
0.3
  0
CIRCLE
  5
A5
330
17
100
AcDbEntity
  8
RF_VIA
100
AcDbCircle
 10
-3.2869
 20
4.1619
 30
0.0
 40
0.15
  0
CIRCLE
  5
A6
330
17
100
AcDbEntity
  8
RF_VIA
100
AcDbCircle
 10
-3.2869
 20
4.1619
 30
0.0
 40
0.3
  0
CIRCLE
  5
A7
330
17
100
AcDbEntity
  8
RF_VIA
100
AcDbCircle
 10
2.0721
 20
-1.5369
 30
0.0
 40
0.15
  0
CIRCLE
  5
A8
330
17
100
AcDbEntity
  8
RF_VIA
100
AcDbCircle
 10
2.0721
 20
-1.5369
 30
0.0
 40
0.3
  0
CIRCLE
  5
A9
330
17
100
AcDbEntity
  8
RF_VIA
100
AcDbCircle
 10
0.8783
 20
-1.5369
 30
0.0
 40
0.15
  0
CIRCLE
  5
AA
330
17
100
AcDbEntity
  8
RF_VIA
100
AcDbCircle
 10
0.8783
 20
-1.5369
 30
0.0
 40
0.3
  0
CIRCLE
  5
AB
330
17
100
AcDbEntity
  8
RF_VIA
100
AcDbCircle
 10
-0.3155
 20
-1.5369
 30
0.0
 40
0.15
  0
CIRCLE
  5
AC
330
17
100
AcDbEntity
  8
RF_VIA
100
AcDbCircle
 10
-0.3155
 20
-1.5369
 30
0.0
 40
0.3
  0
CIRCLE
  5
AD
330
17
100
AcDbEntity
  8
RF_VIA
100
AcDbCircle
 10
-2.6712
 20
-0.4659
 30
0.0
 40
0.15
  0
CIRCLE
  5
AE
330
17
100
AcDbEntity
  8
RF_VIA
100
AcDbCircle
 10
-2.6712
 20
-0.4659
 30
0.0
 40
0.3
  0
CIRCLE
  5
AF
330
17
100
AcDbEntity
  8
RF_VIA
100
AcDbCircle
 10
-2.6758
 20
-1.5487
 30
0.0
 40
0.15
  0
CIRCLE
  5
B0
330
17
100
AcDbEntity
  8
RF_VIA
100
AcDbCircle
 10
-2.6758
 20
-1.5487
 30
0.0
 40
0.3
  0
CIRCLE
  5
B1
330
17
100
AcDbEntity
  8
RF_VIA
100
AcDbCircle
 10
-1.4407
 20
-3.6505
 30
0.0
 40
0.15
  0
CIRCLE
  5
B2
330
17
100
AcDbEntity
  8
RF_VIA
100
AcDbCircle
 10
-1.4407
 20
-3.6505
 30
0.0
 40
0.3
  0
CIRCLE
  5
B3
330
17
100
AcDbEntity
  8
RF_VIA
100
AcDbCircle
 10
-3.2869
 20
-4.1619
 30
0.0
 40
0.15
  0
CIRCLE
  5
B4
330
17
100
AcDbEntity
  8
RF_VIA
100
AcDbCircle
 10
-3.2869
 20
-4.1619
 30
0.0
 40
0.3
  0
CIRCLE
  5
B5
330
17
100
AcDbEntity
  8
RF_VIA
100
AcDbCircle
 10
5.15
 20
-5.65
 30
0.0
 40
0.15
  0
CIRCLE
  5
B6
330
17
100
AcDbEntity
  8
RF_VIA
100
AcDbCircle
 10
5.15
 20
-5.65
 30
0.0
 40
0.3
  0
CIRCLE
  5
B7
330
17
100
AcDbEntity
  8
RF_VIA
100
AcDbCircle
 10
3.9671
 20
-5.65
 30
0.0
 40
0.15
  0
CIRCLE
  5
B8
330
17
100
AcDbEntity
  8
RF_VIA
100
AcDbCircle
 10
3.9671
 20
-5.65
 30
0.0
 40
0.3
  0
CIRCLE
  5
B9
330
17
100
AcDbEntity
  8
RF_VIA
100
AcDbCircle
 10
2.7842
 20
-5.65
 30
0.0
 40
0.15
  0
CIRCLE
  5
BA
330
17
100
AcDbEntity
  8
RF_VIA
100
AcDbCircle
 10
2.7842
 20
-5.65
 30
0.0
 40
0.3
  0
CIRCLE
  5
BB
330
17
100
AcDbEntity
  8
RF_VIA
100
AcDbCircle
 10
1.6013
 20
-5.65
 30
0.0
 40
0.15
  0
CIRCLE
  5
BC
330
17
100
AcDbEntity
  8
RF_VIA
100
AcDbCircle
 10
1.6013
 20
-5.65
 30
0.0
 40
0.3
  0
CIRCLE
  5
BD
330
17
100
AcDbEntity
  8
RF_VIA
100
AcDbCircle
 10
0.4184
 20
-5.65
 30
0.0
 40
0.15
  0
CIRCLE
  5
BE
330
17
100
AcDbEntity
  8
RF_VIA
100
AcDbCircle
 10
0.4184
 20
-5.65
 30
0.0
 40
0.3
  0
CIRCLE
  5
BF
330
17
100
AcDbEntity
  8
RF_VIA
100
AcDbCircle
 10
-0.7645
 20
-5.65
 30
0.0
 40
0.15
  0
CIRCLE
  5
C0
330
17
100
AcDbEntity
  8
RF_VIA
100
AcDbCircle
 10
-0.7645
 20
-5.65
 30
0.0
 40
0.3
  0
CIRCLE
  5
C1
330
17
100
AcDbEntity
  8
RF_VIA
100
AcDbCircle
 10
-1.9474
 20
-5.65
 30
0.0
 40
0.15
  0
CIRCLE
  5
C2
330
17
100
AcDbEntity
  8
RF_VIA
100
AcDbCircle
 10
-1.9474
 20
-5.65
 30
0.0
 40
0.3
  0
CIRCLE
  5
C3
330
17
100
AcDbEntity
  8
RF_VIA
100
AcDbCircle
 10
-3.1303
 20
-5.65
 30
0.0
 40
0.15
  0
CIRCLE
  5
C4
330
17
100
AcDbEntity
  8
RF_VIA
100
AcDbCircle
 10
-3.1303
 20
-5.65
 30
0.0
 40
0.3
  0
CIRCLE
  5
C5
330
17
100
AcDbEntity
  8
RF_VIA
100
AcDbCircle
 10
-3.6593
 20
-1.4474
 30
0.0
 40
0.15
  0
CIRCLE
  5
C6
330
17
100
AcDbEntity
  8
RF_VIA
100
AcDbCircle
 10
-3.6593
 20
-1.4474
 30
0.0
 40
0.3
  0
CIRCLE
  5
C7
330
17
100
AcDbEntity
  8
RF_VIA
100
AcDbCircle
 10
-3.6593
 20
-0.2645
 30
0.0
 40
0.15
  0
CIRCLE
  5
C8
330
17
100
AcDbEntity
  8
RF_VIA
100
AcDbCircle
 10
-3.6593
 20
-0.2645
 30
0.0
 40
0.3
  0
CIRCLE
  5
C9
330
17
100
AcDbEntity
  8
RF_VIA
100
AcDbCircle
 10
-3.6593
 20
0.9184
 30
0.0
 40
0.15
  0
CIRCLE
  5
CA
330
17
100
AcDbEntity
  8
RF_VIA
100
AcDbCircle
 10
-3.6593
 20
0.9184
 30
0.0
 40
0.3
  0
CIRCLE
  5
CB
330
17
100
AcDbEntity
  8
RF_VIA
100
AcDbCircle
 10
-3.6593
 20
2.1013
 30
0.0
 40
0.15
  0
CIRCLE
  5
CC
330
17
100
AcDbEntity
  8
RF_VIA
100
AcDbCircle
 10
-3.6593
 20
2.1013
 30
0.0
 40
0.3
  0
CIRCLE
  5
CD
330
17
100
AcDbEntity
  8
RF_VIA
100
AcDbCircle
 10
-3.6593
 20
5.65
 30
0.0
 40
0.15
  0
CIRCLE
  5
CE
330
17
100
AcDbEntity
  8
RF_VIA
100
AcDbCircle
 10
-3.6593
 20
5.65
 30
0.0
 40
0.3
  0
CIRCLE
  5
CF
330
17
100
AcDbEntity
  8
RF_VIA
100
AcDbCircle
 10
-2.4764
 20
5.65
 30
0.0
 40
0.15
  0
CIRCLE
  5
D0
330
17
100
AcDbEntity
  8
RF_VIA
100
AcDbCircle
 10
-2.4764
 20
5.65
 30
0.0
 40
0.3
  0
CIRCLE
  5
D1
330
17
100
AcDbEntity
  8
RF_VIA
100
AcDbCircle
 10
-1.2935
 20
5.65
 30
0.0
 40
0.15
  0
CIRCLE
  5
D2
330
17
100
AcDbEntity
  8
RF_VIA
100
AcDbCircle
 10
-1.2935
 20
5.65
 30
0.0
 40
0.3
  0
CIRCLE
  5
D3
330
17
100
AcDbEntity
  8
RF_VIA
100
AcDbCircle
 10
-0.1106
 20
5.65
 30
0.0
 40
0.15
  0
CIRCLE
  5
D4
330
17
100
AcDbEntity
  8
RF_VIA
100
AcDbCircle
 10
-0.1106
 20
5.65
 30
0.0
 40
0.3
  0
CIRCLE
  5
D5
330
17
100
AcDbEntity
  8
RF_VIA
100
AcDbCircle
 10
1.0723
 20
5.65
 30
0.0
 40
0.15
  0
CIRCLE
  5
D6
330
17
100
AcDbEntity
  8
RF_VIA
100
AcDbCircle
 10
1.0723
 20
5.65
 30
0.0
 40
0.3
  0
CIRCLE
  5
D7
330
17
100
AcDbEntity
  8
RF_VIA
100
AcDbCircle
 10
2.2552
 20
5.65
 30
0.0
 40
0.15
  0
CIRCLE
  5
D8
330
17
100
AcDbEntity
  8
RF_VIA
100
AcDbCircle
 10
2.2552
 20
5.65
 30
0.0
 40
0.3
  0
CIRCLE
  5
D9
330
17
100
AcDbEntity
  8
RF_VIA
100
AcDbCircle
 10
3.4381
 20
5.65
 30
0.0
 40
0.15
  0
CIRCLE
  5
DA
330
17
100
AcDbEntity
  8
RF_VIA
100
AcDbCircle
 10
3.4381
 20
5.65
 30
0.0
 40
0.3
  0
CIRCLE
  5
DB
330
17
100
AcDbEntity
  8
RF_VIA
100
AcDbCircle
 10
4.621
 20
5.65
 30
0.0
 40
0.15
  0
CIRCLE
  5
DC
330
17
100
AcDbEntity
  8
RF_VIA
100
AcDbCircle
 10
4.621
 20
5.65
 30
0.0
 40
0.3
  0
CIRCLE
  5
DD
330
17
100
AcDbEntity
  8
RF_VIA
100
AcDbCircle
 10
5.15
 20
3.8132
 30
0.0
 40
0.15
  0
CIRCLE
  5
DE
330
17
100
AcDbEntity
  8
RF_VIA
100
AcDbCircle
 10
5.15
 20
3.8132
 30
0.0
 40
0.3
  0
CIRCLE
  5
DF
330
17
100
AcDbEntity
  8
RF_VIA
100
AcDbCircle
 10
5.15
 20
2.6303
 30
0.0
 40
0.15
  0
CIRCLE
  5
E0
330
17
100
AcDbEntity
  8
RF_VIA
100
AcDbCircle
 10
5.15
 20
2.6303
 30
0.0
 40
0.3
  0
CIRCLE
  5
E1
330
17
100
AcDbEntity
  8
RF_VIA
100
AcDbCircle
 10
5.15
 20
-2.1013
 30
0.0
 40
0.15
  0
CIRCLE
  5
E2
330
17
100
AcDbEntity
  8
RF_VIA
100
AcDbCircle
 10
5.15
 20
-2.1013
 30
0.0
 40
0.3
  0
CIRCLE
  5
E3
330
17
100
AcDbEntity
  8
RF_VIA
100
AcDbCircle
 10
5.15
 20
-3.2842
 30
0.0
 40
0.15
  0
CIRCLE
  5
E4
330
17
100
AcDbEntity
  8
RF_VIA
100
AcDbCircle
 10
5.15
 20
-3.2842
 30
0.0
 40
0.3
  0
CIRCLE
  5
E5
330
17
100
AcDbEntity
  8
RF_VIA
100
AcDbCircle
 10
5.15
 20
-4.4671
 30
0.0
 40
0.15
  0
CIRCLE
  5
E6
330
17
100
AcDbEntity
  8
RF_VIA
100
AcDbCircle
 10
5.15
 20
-4.4671
 30
0.0
 40
0.3
  0
LWPOLYLINE
  5
E7
330
17
100
AcDbEntity
  8
RF_RESISTOR
100
AcDbPolyline
 90
4
 70
1
 10
-1.809301698850381
 20
-0.16592700004883854
 10
-1.2093016988503809
 20
-0.16592700004883854
 10
-1.2093016988503809
 20
0.16592700004883854
 10
-1.809301698850381
 20
0.16592700004883854
  0
TEXT
  5
E8
330
17
100
AcDbEntity
  8
RF_RESISTOR
100
AcDbText
 10
-1.509301698850381
 20
0.31592700004883856
 30
0.0
 40
0.35
  1
R1 126.703R
 11
-1.509301698850381
 21
0.31592700004883856
 31
0.0
100
AcDbText
  0
TEXT
  5
E9
330
17
100
AcDbEntity
  8
RF_PORT
100
AcDbText
 10
6.0
 20
0.0
 30
0.0
 40
0.5
  1
P1
 11
6.0
 21
0.0
 31
0.0
100
AcDbText
  0
TEXT
  5
EA
330
17
100
AcDbEntity
  8
RF_PORT
100
AcDbText
 10
-4.509301698850381
 20
3.0
 30
0.0
 40
0.5
  1
P2
 11
-4.509301698850381
 21
3.0
 31
0.0
100
AcDbText
  0
TEXT
  5
EB
330
17
100
AcDbEntity
  8
RF_PORT
100
AcDbText
 10
-4.509301698850381
 20
-3.0
 30
0.0
 40
0.5
  1
P3
 11
-4.509301698850381
 21
-3.0
 31
0.0
100
AcDbText
  0
ENDSEC
  0
SECTION
  2
OBJECTS
  0
DICTIONARY
  5
A
330
0
100
AcDbDictionary
281
1
  3
ACAD_COLOR
350
B
  3
ACAD_GROUP
350
C
  3
ACAD_LAYOUT
350
D
  3
ACAD_MATERIAL
350
E
  3
ACAD_MLEADERSTYLE
350
F
  3
ACAD_MLINESTYLE
350
10
  3
ACAD_PLOTSETTINGS
350
11
  3
ACAD_PLOTSTYLENAME
350
12
  3
ACAD_SCALELIST
350
14
  3
ACAD_TABLESTYLE
350
15
  3
ACAD_VISUALSTYLE
350
16
  3
EZDXF_META
350
2D
  0
DICTIONARY
  5
B
330
A
100
AcDbDictionary
281
1
  0
DICTIONARY
  5
C
330
A
100
AcDbDictionary
281
1
  0
DICTIONARY
  5
D
330
A
100
AcDbDictionary
281
1
  3
Model
350
1A
  3
Layout1
350
1E
  0
DICTIONARY
  5
E
330
A
100
AcDbDictionary
281
1
  3
ByBlock
350
1F
  3
ByLayer
350
20
  3
Global
350
21
  0
DICTIONARY
  5
F
330
A
100
AcDbDictionary
281
1
  3
Standard
350
2C
  0
DICTIONARY
  5
10
330
A
100
AcDbDictionary
281
1
  3
Standard
350
22
  0
DICTIONARY
  5
11
330
A
100
AcDbDictionary
281
1
  0
ACDBDICTIONARYWDFLT
  5
12
330
A
100
AcDbDictionary
281
1
  3
Normal
350
13
100
AcDbDictionaryWithDefault
340
13
  0
ACDBPLACEHOLDER
  5
13
330
12
  0
DICTIONARY
  5
14
330
A
100
AcDbDictionary
281
1
  0
DICTIONARY
  5
15
330
A
100
AcDbDictionary
281
1
  0
DICTIONARY
  5
16
330
A
100
AcDbDictionary
281
1
  3
2dWireframe
350
5A
  3
Basic
350
5B
  3
Brighten
350
5C
  3
ColorChange
350
5D
  3
Conceptual
350
5E
  3
Dim
350
5F
  3
EdgeColorOff
350
60
  3
Facepattern
350
61
  3
Flat
350
62
  3
FlatWithEdges
350
63
  3
Gouraud
350
64
  3
GouraudWithEdges
350
65
  3
Hidden
350
66
  3
JitterOff
350
67
  3
Linepattern
350
68
  3
Modeling
350
69
  3
OverhangOff
350
6A
  3
Realistic
350
6B
  3
Shaded
350
6C
  3
Shaded with edges
350
6D
  3
Shades of Gray
350
6E
  3
Sketchy
350
6F
  3
Thicken
350
70
  3
Wireframe
350
71
  3
X-Ray
350
72
  0
LAYOUT
  5
1A
330
D
100
AcDbPlotSettings
  1

  4
A3
  6

 40
7.5
 41
20.0
 42
7.5
 43
20.0
 44
420.0
 45
297.0
 46
0.0
 47
0.0
 48
0.0
 49
0.0
140
0.0
141
0.0
142
1.0
143
1.0
 70
1024
 72
1
 73
0
 74
5
  7

 75
16
 76
0
 77
2
 78
300
147
1.0
148
0.0
149
0.0
100
AcDbLayout
  1
Model
 70
1
 71
0
 10
0.0
 20
0.0
 11
420.0
 21
297.0
 12
0.0
 22
0.0
 32
0.0
 14
1e+20
 24
1e+20
 34
1e+20
 15
-1e+20
 25
-1e+20
 35
-1e+20
146
0.0
 13
0.0
 23
0.0
 33
0.0
 16
1.0
 26
0.0
 36
0.0
 17
0.0
 27
1.0
 37
0.0
 76
1
330
17
  0
LAYOUT
  5
1E
330
D
100
AcDbPlotSettings
  1

  4
A3
  6

 40
7.5
 41
20.0
 42
7.5
 43
20.0
 44
420.0
 45
297.0
 46
0.0
 47
0.0
 48
0.0
 49
0.0
140
0.0
141
0.0
142
1.0
143
1.0
 70
0
 72
1
 73
0
 74
5
  7

 75
16
 76
0
 77
2
 78
300
147
1.0
148
0.0
149
0.0
100
AcDbLayout
  1
Layout1
 70
1
 71
1
 10
0.0
 20
0.0
 11
420.0
 21
297.0
 12
0.0
 22
0.0
 32
0.0
 14
1e+20
 24
1e+20
 34
1e+20
 15
-1e+20
 25
-1e+20
 35
-1e+20
146
0.0
 13
0.0
 23
0.0
 33
0.0
 16
1.0
 26
0.0
 36
0.0
 17
0.0
 27
1.0
 37
0.0
 76
1
330
1B
  0
MATERIAL
  5
1F
102
{ACAD_REACTORS
330
E
102
}
330
E
100
AcDbMaterial
  1
ByBlock
  2

 70
0
 40
1.0
 71
1
 41
1.0
 91
-1023410177
 42
1.0
 72
1
  3

 73
1
 74
1
 75
1
 44
0.5
 73
0
 45
1.0
 46
1.0
 77
1
  4

 78
1
 79
1
170
1
 48
1.0
171
1
  6

172
1
173
1
174
1
140
1.0
141
1.0
175
1
  7

176
1
177
1
178
1
143
1.0
179
1
  8

270
1
271
1
272
1
145
1.0
146
1.0
273
1
  9

274
1
275
1
276
1
 42
1.0
 72
1
  3

 73
1
 74
1
 75
1
 94
63
  0
MATERIAL
  5
20
102
{ACAD_REACTORS
330
E
102
}
330
E
100
AcDbMaterial
  1
ByLayer
  2

 70
0
 40
1.0
 71
1
 41
1.0
 91
-1023410177
 42
1.0
 72
1
  3

 73
1
 74
1
 75
1
 44
0.5
 73
0
 45
1.0
 46
1.0
 77
1
  4

 78
1
 79
1
170
1
 48
1.0
171
1
  6

172
1
173
1
174
1
140
1.0
141
1.0
175
1
  7

176
1
177
1
178
1
143
1.0
179
1
  8

270
1
271
1
272
1
145
1.0
146
1.0
273
1
  9

274
1
275
1
276
1
 42
1.0
 72
1
  3

 73
1
 74
1
 75
1
 94
63
  0
MATERIAL
  5
21
102
{ACAD_REACTORS
330
E
102
}
330
E
100
AcDbMaterial
  1
Global
  2

 70
0
 40
1.0
 71
1
 41
1.0
 91
-1023410177
 42
1.0
 72
1
  3

 73
1
 74
1
 75
1
 44
0.5
 73
0
 45
1.0
 46
1.0
 77
1
  4

 78
1
 79
1
170
1
 48
1.0
171
1
  6

172
1
173
1
174
1
140
1.0
141
1.0
175
1
  7

176
1
177
1
178
1
143
1.0
179
1
  8

270
1
271
1
272
1
145
1.0
146
1.0
273
1
  9

274
1
275
1
276
1
 42
1.0
 72
1
  3

 73
1
 74
1
 75
1
 94
63
  0
MLINESTYLE
  5
22
102
{ACAD_REACTORS
330
10
102
}
330
10
100
AcDbMlineStyle
  2
Standard
 70
0
  3

 62
256
 51
90.0
 52
90.0
 71
2
 49
0.5
 62
256
  6
BYLAYER
 49
-0.5
 62
256
  6
BYLAYER
  0
MLEADERSTYLE
  5
2C
102
{ACAD_REACTORS
330
F
102
}
330
F
100
AcDbMLeaderStyle
179
2
170
2
171
1
172
0
 90
2
 40
0.0
 41
0.0
173
1
 91
-1056964608
 92
-2
290
1
 42
2.0
291
1
 43
8.0
  3
Standard
 44
4.0
300

342
29
174
1
175
1
176
0
178
1
 93
-1056964608
 45
4.0
292
0
297
0
 46
4.0
 94
-1056964608
 47
1.0
 49
1.0
140
1.0
294
1
141
0.0
177
0
142
1.0
295
0
296
0
143
3.75
271
0
272
9
273
9
  0
DICTIONARY
  5
2D
330
A
100
AcDbDictionary
280
1
281
1
  3
CREATED_BY_EZDXF
350
2E
  3
WRITTEN_BY_EZDXF
350
EE
  0
DICTIONARYVAR
  5
2E
330
2D
100
DictionaryVariables
280
0
  1
1.4.4 @ 2026-09-01T08:55:33.480457+00:00
  0
VISUALSTYLE
  5
5A
102
{ACAD_REACTORS
330
16
102
}
330
16
100
AcDbVisualStyle
  2
2dWireframe
 70
4
 90
0
 40
0.6
 62
7
290
0
291
0
  0
VISUALSTYLE
  5
5B
102
{ACAD_REACTORS
330
16
102
}
330
16
100
AcDbVisualStyle
  2
Basic
 70
7
 90
1
 40
0.6
 62
7
290
0
291
1
  0
VISUALSTYLE
  5
5C
102
{ACAD_REACTORS
330
16
102
}
330
16
100
AcDbVisualStyle
  2
Brighten
 70
12
 90
2
 40
0.6
 62
7
290
0
291
1
  0
VISUALSTYLE
  5
5D
102
{ACAD_REACTORS
330
16
102
}
330
16
100
AcDbVisualStyle
  2
ColorChange
 70
16
 90
2
 40
0.6
 62
8
290
0
291
1
  0
VISUALSTYLE
  5
5E
102
{ACAD_REACTORS
330
16
102
}
330
16
100
AcDbVisualStyle
  2
Conceptual
 70
9
 90
3
 40
0.6
 62
7
290
0
291
0
  0
VISUALSTYLE
  5
5F
102
{ACAD_REACTORS
330
16
102
}
330
16
100
AcDbVisualStyle
  2
Dim
 70
11
 90
2
 40
0.6
 62
7
290
0
291
1
  0
VISUALSTYLE
  5
60
102
{ACAD_REACTORS
330
16
102
}
330
16
100
AcDbVisualStyle
  2
EdgeColorOff
 70
22
 90
2
 40
0.6
 62
7
290
0
291
1
  0
VISUALSTYLE
  5
61
102
{ACAD_REACTORS
330
16
102
}
330
16
100
AcDbVisualStyle
  2
Facepattern
 70
15
 90
2
 40
0.6
 62
7
290
0
291
1
  0
VISUALSTYLE
  5
62
102
{ACAD_REACTORS
330
16
102
}
330
16
100
AcDbVisualStyle
  2
Flat
 70
0
 90
2
 40
0.6
 62
7
290
0
291
1
  0
VISUALSTYLE
  5
63
102
{ACAD_REACTORS
330
16
102
}
330
16
100
AcDbVisualStyle
  2
FlatWithEdges
 70
1
 90
2
 40
0.6
 62
7
290
0
291
1
  0
VISUALSTYLE
  5
64
102
{ACAD_REACTORS
330
16
102
}
330
16
100
AcDbVisualStyle
  2
Gouraud
 70
2
 90
2
 40
0.6
 62
7
290
0
291
1
  0
VISUALSTYLE
  5
65
102
{ACAD_REACTORS
330
16
102
}
330
16
100
AcDbVisualStyle
  2
GouraudWithEdges
 70
3
 90
2
 40
0.6
 62
7
290
0
291
1
  0
VISUALSTYLE
  5
66
102
{ACAD_REACTORS
330
16
102
}
330
16
100
AcDbVisualStyle
  2
Hidden
 70
6
 90
1
 40
0.6
 62
7
290
0
291
0
  0
VISUALSTYLE
  5
67
102
{ACAD_REACTORS
330
16
102
}
330
16
100
AcDbVisualStyle
  2
JitterOff
 70
20
 90
2
 40
0.6
 62
7
290
0
291
1
  0
VISUALSTYLE
  5
68
102
{ACAD_REACTORS
330
16
102
}
330
16
100
AcDbVisualStyle
  2
Linepattern
 70
14
 90
2
 40
0.6
 62
7
290
0
291
1
  0
VISUALSTYLE
  5
69
102
{ACAD_REACTORS
330
16
102
}
330
16
100
AcDbVisualStyle
  2
Modeling
 70
10
 90
2
 40
0.6
 62
7
290
0
291
0
  0
VISUALSTYLE
  5
6A
102
{ACAD_REACTORS
330
16
102
}
330
16
100
AcDbVisualStyle
  2
OverhangOff
 70
21
 90
2
 40
0.6
 62
7
290
0
291
1
  0
VISUALSTYLE
  5
6B
102
{ACAD_REACTORS
330
16
102
}
330
16
100
AcDbVisualStyle
  2
Realistic
 70
8
 90
2
 40
0.6
 62
7
290
0
291
0
  0
VISUALSTYLE
  5
6C
102
{ACAD_REACTORS
330
16
102
}
330
16
100
AcDbVisualStyle
  2
Shaded
 70
27
 90
2
 40
0.6
 62
7
290
0
291
0
  0
VISUALSTYLE
  5
6D
102
{ACAD_REACTORS
330
16
102
}
330
16
100
AcDbVisualStyle
  2
Shaded with edges
 70
26
 90
2
 40
0.6
 62
7
290
0
291
0
  0
VISUALSTYLE
  5
6E
102
{ACAD_REACTORS
330
16
102
}
330
16
100
AcDbVisualStyle
  2
Shades of Gray
 70
23
 90
2
 40
0.6
 62
7
290
0
291
0
  0
VISUALSTYLE
  5
6F
102
{ACAD_REACTORS
330
16
102
}
330
16
100
AcDbVisualStyle
  2
Sketchy
 70
24
 90
1
 40
0.6
 62
7
290
0
291
0
  0
VISUALSTYLE
  5
70
102
{ACAD_REACTORS
330
16
102
}
330
16
100
AcDbVisualStyle
  2
Thicken
 70
13
 90
2
 40
0.6
 62
7
290
0
291
1
  0
VISUALSTYLE
  5
71
102
{ACAD_REACTORS
330
16
102
}
330
16
100
AcDbVisualStyle
  2
Wireframe
 70
5
 90
0
 40
0.6
 62
7
290
0
291
0
  0
VISUALSTYLE
  5
72
102
{ACAD_REACTORS
330
16
102
}
330
16
100
AcDbVisualStyle
  2
X-Ray
 70
25
 90
2
 40
0.5
 62
7
290
0
291
0
  0
DICTIONARYVAR
  5
EE
330
2D
100
DictionaryVariables
280
0
  1
1.4.4 @ 2026-09-01T08:55:33.485283+00:00
  0
ENDSEC
  0
EOF
